<?xml version="1.0" encoding="utf-8"?>
<!-- Uploaded to: SVG Repo, www.svgrepo.com, Generator: SVG Repo Mixer Tools -->
<svg version="1.1" id="Uploaded to svgrepo.com" xmlns="http://www.w3.org/2000/svg" xmlns:xlink="http://www.w3.org/1999/xlink" 
	 width="800px" height="800px" viewBox="0 0 32 32" xml:space="preserve">
<style type="text/css">
	.isometric_acht{fill:#F05A28;}
	.isometric_negen{fill:#BE1E2D;}
	.isometric_tien{fill:#7BD6C4;}
	.isometric_elf{fill:#72C0AB;}
	.isometric_twaalf{fill:#569080;}
	.isometric_dertien{fill:#225B49;}
	.st0{fill:#FF7344;}
	.st1{fill:#F29227;}
	.st2{fill:#225B49;}
	.st3{fill:#F28103;}
	.st4{fill:#F8F7C5;}
	.st5{fill:#BE1E2D;}
	.st6{fill:#AD9A74;}
	.st7{fill:#F2D76C;}
	.st8{fill:#F5DF89;}
	.st9{fill:#7BD6C4;}
	.st10{fill:#80CCBE;}
</style>
<g>
	<path class="isometric_dertien" d="M25.707,9.87c0.21,0.747-0.422,1.869-1.192,2.095c0.118,0.42,0.492,0.57,0.956,0.302
		c0.557-0.322,1.009-1.101,1.009-1.74C26.48,9.983,26.147,9.741,25.707,9.87z"/>
	<polygon class="isometric_negen" points="13.829,22.152 12.266,21.508 12.768,25.556 	"/>
	<path class="isometric_dertien" d="M27.997,8.767c0,0.01,0.003,0.018,0.003,0.028V8.783C28,8.777,27.997,8.773,27.997,8.767z"/>
	<polygon class="isometric_acht" points="13.829,22.152 12.768,25.556 26.766,17.415 28,14.02 	"/>
	<path class="isometric_dertien" d="M14.242,17.213c0.817-0.408,0.475-1.928-0.297-2.865l12.152-6.552
		c0.479-0.276,0.901-0.29,1.21-0.113c-0.338-0.233-0.821-0.364-1.4-0.535c0,0-0.812-0.327-1.373-0.004
		C11.918,13.945,4.438,18.217,4.438,18.217c0.259-0.142,0.611-0.113,0.994,0.123c0.766,0.47,1.368,1.585,1.343,2.489
		c-0.012,0.452-0.179,0.766-0.438,0.908l5.928-3.39v3.161l1.563,0.643l0-4.698C13.834,17.451,14.245,17.219,14.242,17.213z"/>
	<path class="isometric_elf" d="M27.997,8.767c-0.003-0.42-0.318-0.828-0.691-1.085c-0.309-0.176-0.731-0.163-1.21,0.113
		l-12.152,6.552c0.772,0.937,1.113,2.458,0.297,2.865l-0.413,0.241l0,4.698L28,14.02V8.795C28,8.785,27.997,8.777,27.997,8.767z
		 M25.471,12.267c-0.463,0.268-0.837,0.118-0.956-0.302c-0.21-0.747,0.419-1.868,1.192-2.095c0.44-0.129,0.773,0.114,0.773,0.657
		C26.48,11.166,26.028,11.945,25.471,12.267z"/>
	<path class="isometric_twaalf" d="M6.26,21.779l0.078-0.042c-0.026,0.014-0.057,0.019-0.085,0.03L6.26,21.779z"/>
	<path class="isometric_twaalf" d="M4.362,18.277c0.026-0.019,0.048-0.045,0.076-0.06l-0.084,0.046L4.362,18.277z"/>
	<path class="isometric_tien" d="M5.432,18.34c0.766,0.47,1.368,1.585,1.343,2.489s-0.665,1.256-1.431,0.786
		s-1.368-1.585-1.343-2.489C4.025,18.221,4.666,17.869,5.432,18.34z"/>
</g>
</svg>