<?xml version="1.0" encoding="utf-8"?>
<!-- Uploaded to: SVG Repo, www.svgrepo.com, Generator: SVG Repo Mixer Tools -->
<svg version="1.1" id="Uploaded to svgrepo.com" xmlns="http://www.w3.org/2000/svg" xmlns:xlink="http://www.w3.org/1999/xlink" 
	 width="800px" height="800px" viewBox="0 0 32 32" xml:space="preserve">
<style type="text/css">
	.isometric_tien{fill:#7BD6C4;}
	.isometric_zeven{fill:#FF7344;}
	.isometric_acht{fill:#F05A28;}
	.isometric_dertien{fill:#225B49;}
	.isometric_negen{fill:#BE1E2D;}
	.st0{fill:#72C0AB;}
</style>
<g>
	<path class="isometric_tien" d="M17.968,6.079l3.501-1.767c0.737-0.385,1.653-0.102,2.046,0.634
		c0.393,0.735,0.115,1.643-0.622,2.029L19,8.939V8.938l0.563-0.307C18.565,9.047,17.181,6.813,17.968,6.079z M13.699,6.79
		c0.019-0.133,0.031-0.265,0.037-0.397C13.731,6.525,13.717,6.658,13.699,6.79z M24.044,7.92c-1.049,0.284-0.784,2.899,0.284,2.996
		l2.034-0.21c0.827-0.085,1.422-0.826,1.328-1.655c-0.093-0.829-0.839-1.431-1.666-1.346L23.64,7.952L24.044,7.92z M22.074,11.148
		l0.945-0.097c0.005-0.018,0.006-0.038,0.011-0.056c-0.932-0.301-1.126-2.637-0.17-2.963l-1.65,0.17
		c-0.001,0.004-0.003,0.009-0.004,0.013c-0.158,0.025-0.316,0.068-0.465,0.146L19,9.27v3.424l3.073-1.556
		C22.073,11.142,22.074,11.145,22.074,11.148z M25.943,11.929L24,11.707v0.008l0.35,0.038c-0.131,0.014-0.247,0.066-0.35,0.144
		v2.801c0.055,0.03,0.113,0.053,0.176,0.067L24,14.748v0.019l1.667,0.169c0.827,0.084,1.559-0.521,1.636-1.351
		C27.379,12.754,26.771,12.013,25.943,11.929z M24.307,16.064L24,16.029v3.038c0.821,0.088,1.555-0.504,1.643-1.329
		C25.731,16.909,25.132,16.16,24.307,16.064z M22.532,18.886l-0.174-0.007L23,18.953v-3.039l-0.309-0.036
		C21.617,16.017,21.471,18.657,22.532,18.886z M21,18.312c-0.362-0.862-0.057-2.442,0.763-2.541l-1.285-0.148l2.086-1.002L23,14.665
		v-0.01l-0.004,0c-1.002-0.216-0.92-2.606,0.004-2.981v-0.081l-0.241-0.028c0,0,0,0,0,0c-0.329-0.08-0.685-0.059-1.012,0.099
		L19,12.983v6.308l1.255-0.655L21,18.722V18.312z M18,9.792l-0.917,0.478l-0.081-0.153L16.93,9.984L18,9.444V9.212
		c0-0.044,0.014-0.084,0.025-0.125c-0.849-0.393-1.618-1.974-0.953-2.55l0.328-0.172l-4.15,2.094l0.329-1.071
		c0.01-0.031,0.01-0.063,0.019-0.094c0,0,0,0.001,0,0.002C13.494,7.473,13.277,7.584,13,7.643v14.425
		c0.409,0.009,0.758-0.05,0.992-0.173l1.132-0.583l2.876-1.5V9.792z M7.128,13.872c-0.011,0.325,0.007,0.654,0.042,0.984
		c0.004,0.057,0.013,0.108,0.018,0.164c0.316,2.491,1.867,5.016,3.923,6.358c0.011,0.007,0.022,0.014,0.033,0.022
		c0.241,0.154,0.538,0.304,0.856,0.425V7.665c-1.121-0.127-2.384-0.677-2.322-1.328l0.277-0.902C9.872,6.47,13.069,7.2,13.736,6.393
		c0.072-1.76-1.035-3.425-2.81-3.977l-0.039-0.012l-2.789,9.068c-0.011,0.01-0.024,0.019-0.036,0.029
		C7.565,11.995,7.169,12.695,7.128,13.872z"/>
	<path class="isometric_negen" d="M17.457,6.462c0,0-0.125-0.618-0.188-0.927c-0.063-0.309,0.077-0.728,0.312-0.935
		c0.128-0.113,0.256-0.137,0.358-0.089c0.086,0.041,0.152,0.132,0.181,0.273C18.248,5.416,17.457,6.462,17.457,6.462z M15.779,5.812
		c-0.141,0.029-0.232,0.096-0.273,0.181c-0.048,0.102-0.024,0.23,0.089,0.358c0.208,0.235,0.626,0.374,0.935,0.312
		c0.309-0.063,0.927-0.188,0.927-0.188S16.413,5.683,15.779,5.812z"/>
	<path class="isometric_dertien" d="M12,22.927c-0.745,0.244-1.69,0.073-2.695-0.559C6.871,20.84,5.2,17.664,5.298,14.827
		c0.041-1.197,0.43-2.09,1.063-2.564l1.726-0.789c-0.51,0.497-0.917,1.202-0.958,2.399c-0.098,2.831,1.609,5.957,3.983,7.506
		c0.011,0.007,0.022,0.014,0.033,0.022c0.241,0.154,0.538,0.304,0.856,0.425V22.927z M13,22.417
		c0.492-0.259,0.991-0.521,0.992-0.522C13.698,22.05,13.354,22.09,13,22.063V22.417z M22.751,24.02
		c-0.234-0.135-0.494-0.243-0.751-0.354v6.195c0.268-0.114,0.538-0.227,0.781-0.367c0.078-0.045,0.146-0.094,0.219-0.14v-5.174
		C22.917,24.126,22.839,24.071,22.751,24.02z M24,25.017v3.508C24.97,27.428,24.968,26.119,24,25.017z M18,22.878
		c-1.716-0.003-3.43,0.372-4.736,1.125c-0.094,0.054-0.177,0.112-0.264,0.169v5.117c0.096,0.063,0.19,0.127,0.294,0.188
		c1.308,0.755,3.018,1.135,4.728,1.141C18.014,30.581,18,30.547,18,30.509V22.878z M19,22.935v7.574
		c0,0.021-0.009,0.038-0.012,0.058c0.696-0.056,1.37-0.177,2.012-0.359V23.31C20.361,23.124,19.692,22.996,19,22.935z M12,28.423
		v-3.396C11.094,26.094,11.095,27.351,12,28.423z"/>
	<path class="isometric_acht" d="M24.176,14.764l-1.18-0.109c-1.064-0.23-0.907-2.914,0.185-3.029l1.169,0.126
		C23.261,11.866,23.11,14.534,24.176,14.764z M17.457,6.462l0.001,0.015c0,0,1.463-0.945,1.367-1.418
		c-0.03-0.147-0.1-0.243-0.191-0.281c-0.1-0.041-0.688-0.268-0.688-0.268s-0.006,0-0.007,0c0.086,0.041,0.152,0.132,0.181,0.273
		C18.248,5.416,17.457,6.462,17.457,6.462z M17.458,6.474l0.015-0.001c0,0-0.945-1.463-1.418-1.367
		c-0.147,0.03-0.243,0.1-0.281,0.191c-0.041,0.1-0.268,0.688-0.268,0.688s0,0.006,0,0.007c0.041-0.086,0.132-0.152,0.273-0.181
		C16.412,5.683,17.458,6.474,17.458,6.474z M17.984,6.059l-0.912,0.477c-0.83,0.718,0.575,3.011,1.579,2.591l0.911-0.497
		C18.557,9.051,17.156,6.775,17.984,6.059z M24.044,7.92l-1.148,0.09c-1.06,0.287-0.787,2.962,0.3,3.019l1.156-0.109
		C23.263,10.863,22.988,8.206,24.044,7.92z M22.706,15.874l-0.934-0.106c-1.092,0.115-1.282,2.849-0.218,3.079l0.977,0.039
		C21.466,18.655,21.617,15.988,22.706,15.874z M9.956,5.435L9.678,6.337c-0.103,1.07,3.378,1.874,3.92,0.959
		c0.085-0.301,0.125-0.603,0.138-0.904C13.069,7.2,9.872,6.47,9.956,5.435z"/>
	<path class="isometric_zeven" d="M13,7.579v21.709c-0.407-0.267-0.741-0.558-1-0.865V7.579c0-0.276,0.224-0.5,0.5-0.5
		S13,7.303,13,7.579z M18.5,8.712c-0.276,0-0.5,0.224-0.5,0.5v21.297c0,0.038,0.014,0.072,0.022,0.108
		c0.324,0.001,0.645-0.024,0.966-0.049C18.991,30.547,19,30.53,19,30.509V8.712H18.5z M23.5,10.645c-0.276,0-0.5,0.224-0.5,0.5
		v18.208c0.402-0.256,0.739-0.533,1-0.828V11.145C24,10.869,23.776,10.645,23.5,10.645z M21.5,18.088H21v12.12
		c0.347-0.098,0.681-0.212,1-0.348V18.588C22,18.312,21.776,18.088,21.5,18.088z"/>
</g>
</svg>