<?xml version="1.0" ?>
<!-- Uploaded to: SVG Repo, www.svgrepo.com, Generator: SVG Repo Mixer Tools -->
<svg width="800px" height="800px" viewBox="0 0 64 64" xmlns="http://www.w3.org/2000/svg">
<defs>
<style>.cls-1{fill:#aaddb4;}.cls-2{fill:#92d39d;}.cls-3{fill:#efc89d;}.cls-4{fill:#ebb87f;}</style>
</defs>
<g id="Elf">
<path class="cls-1" d="M16,48.8V27.45l1.17-6.95S19.07,8,32,8,46.87,20.5,46.87,20.5l1.17,7V48.8Z" id="path90997-7"/>
<path class="cls-2" d="M48,48.8c0-7.18-6.46-4.56-6.46-14.36H22.42c0,9.8-6.46,7.18-6.46,14.36Z" id="path97512-1"/>
<path class="cls-3" d="M33,56H49.47a1.67,1.67,0,0,0,1.64-2c-.64-3.19-3-5.54-5.77-7.18l-8-4.67V38H26.65v4.15l-8,4.67c-2.81,1.64-5.13,4-5.77,7.18a1.67,1.67,0,0,0,1.64,2H31l1-1Z" id="path123162-7-2-6-3"/>
<path class="cls-4" d="M26.65,38v3.25A9.2,9.2,0,0,0,32,43.14a9.14,9.14,0,0,0,5.35-1.89V38Z" id="path242118"/>
<path class="cls-3" d="M21.15,31.86c2,4.92,6.08,9.28,10.85,9.28s8.89-4.36,10.85-9.28c.15-.38.27-.73.39-1.06,0,0,1.75.78,4-2,1.09-1.33,2.15-5.18,3-8.8.91-4.11-.33-4.56-2.5-.95l-2.08,3.47a2.89,2.89,0,0,1-4.23.91,23.88,23.88,0,0,1-5-5c-2.43,2.58-9.28,4.81-13.3,6a4.43,4.43,0,0,1-4.69-1.91l-2.08-3.47c-2.17-3.61-3.41-3.16-2.5.95.81,3.62,1.87,7.47,3,8.8,2.26,2.74,4,2,4,2C20.88,31.13,21,31.48,21.15,31.86Z" id="path25222-7-2-6-7-2-9"/>
<path class="cls-4" d="M24.16,49.74a1,1,0,0,0,.18,2c3.26-.3,4.77.8,5.64,1.94A5.3,5.3,0,0,1,31,56h2a5.3,5.3,0,0,1,1-2.32c.87-1.14,2.38-2.24,5.64-1.94a1,1,0,0,0,.18-2Z" id="path75271-1"/>
</g>
</svg>