<?xml version="1.0" encoding="utf-8"?>
<!-- Uploaded to: SVG Repo, www.svgrepo.com, Generator: SVG Repo Mixer Tools -->
<svg version="1.1" id="Uploaded to svgrepo.com" xmlns="http://www.w3.org/2000/svg" xmlns:xlink="http://www.w3.org/1999/xlink" 
	 width="800px" height="800px" viewBox="0 0 32 32" xml:space="preserve">
<style type="text/css">
	.isometric_een{fill:#F8F7C5;}
	.isometric_twee{fill:#F5DF89;}
	.isometric_vier{fill:#AD9A74;}
	.isometric_tien{fill:#7BD6C4;}
	.isometric_elf{fill:#72C0AB;}
	.isometric_twaalf{fill:#569080;}
	.isometric_dertien{fill:#225B49;}
	.st0{fill:#F28103;}
	.st1{fill:#BE1E2D;}
	.st2{fill:#F05A28;}
	.st3{fill:#F29227;}
	.st4{fill:#FF7344;}
	.st5{fill:#F2D76C;}
	.st6{fill:none;}
	.st7{fill:#72C0AB;}
	.st8{fill:#569080;}
</style>
<g>
	<path class="isometric_twee" d="M27.724,9.045c0.272-0.32,0.357-0.82,0.191-1.441c-0.354-1.322-1.706-2.678-3.019-3.03
		c-0.586-0.157-1.064-0.086-1.381,0.158c-0.351,0.27-8.228,8.216-8.523,8.51c-0.316,0.315-0.423,0.84-0.246,1.501
		c0.354,1.322,1.706,2.678,3.019,3.03c0.663,0.178,1.186,0.064,1.497-0.262C19.544,17.214,27.435,9.384,27.724,9.045z"/>
	<path class="isometric_vier" d="M26.178,9.36c-1.313-0.352-2.665-1.708-3.019-3.03c-0.354-1.322,0.423-2.108,1.737-1.756
		c1.313,0.352,2.665,1.708,3.019,3.03C28.269,8.926,27.491,9.712,26.178,9.36z"/>
	<path class="isometric_twaalf" d="M14.62,24.757c-2.577-0.691-5.215-3.09-6.396-5.665c-0.001-0.003-0.003-0.006-0.005-0.01
		c-1.341,3.13-2.205,6.856-2.217,6.911c0.098,0.001,6.284-0.002,10.44-1.14C15.84,24.934,15.218,24.917,14.62,24.757z"/>
	<polygon class="isometric_twaalf" points="6,26 6.002,25.993 6,25.993 	"/>
	<path class="isometric_dertien" d="M7.636,15.962C6.677,18.958,6.141,23.39,6,25.993h0.001c0.013-0.054,0.876-3.781,2.217-6.911
		C7.776,18.115,7.474,17.023,7.636,15.962z"/>
	<path class="isometric_tien" d="M17.765,17.773c-1.68-0.45-3.301-2.478-3.082-3.881c-3.705-0.072-5.255,2.368-6.464,5.19
		c1.18,2.579,3.821,4.983,6.401,5.675c1.815,0.486,3.853-0.339,4.854-1.279c0.989-0.929,1.621-2.1,1.908-3.356
		c0.006-0.028,0.008-0.058,0.014-0.086c-0.136-1.163-0.592-2.308-1.344-3.317C19.2,17.569,18.936,18.087,17.765,17.773z"/>
	<path class="isometric_elf" d="M14.683,13.892c-3.655-0.071-5.21,2.264-6.464,5.19c-0.447-0.977-0.744-2.066-0.583-3.12
		c0.005-0.016,0.009-0.033,0.015-0.049c1.786-5.517,6.416-5.541,9.099-4.44c-0.965,0.971-1.674,1.685-1.758,1.769
		C14.828,13.406,14.724,13.627,14.683,13.892z M20.052,16.719c0.751,1.009,1.208,2.154,1.344,3.317
		c0.3-1.394,0.172-2.887-0.384-4.273C20.648,16.125,20.321,16.451,20.052,16.719z"/>
	<path class="isometric_een" d="M20.881,15.895c-0.316,0.305-0.829,0.409-1.474,0.236c-1.313-0.352-2.665-1.708-3.019-3.03
		c-0.175-0.655-0.072-1.177,0.236-1.495c-0.432,0.382-1.364,1.369-1.631,1.636c-0.316,0.315-0.423,0.84-0.246,1.501
		c0.354,1.322,1.706,2.678,3.019,3.03c0.663,0.178,1.186,0.064,1.497-0.262C19.527,17.233,20.518,16.292,20.881,15.895z"/>
</g>
</svg>