<?xml version="1.0" ?>
<!-- Uploaded to: SVG Repo, www.svgrepo.com, Generator: SVG Repo Mixer Tools -->
<svg width="800px" height="800px" viewBox="0 0 512 512" enable-background="new 0 0 512 512" id="flat" version="1.1" xml:space="preserve" xmlns="http://www.w3.org/2000/svg" xmlns:xlink="http://www.w3.org/1999/xlink">
<polygon fill="#3C3F50" points="55.145,448.235 57.448,424.079 8,436.373 161.162,319.866 205.519,350.835 "/>
<path d="M231.041,273.936L68.952,304l22.421-36.361c19.638-31.847,47.476-56.941,79.993-72.109L320,126.2  l-27.275,90.188C283.672,246.325,259.792,268.604,231.041,273.936z" fill="#737A99"/>
<g>
<path d="M239.991,512c-4.14,0-7.645-3.189-7.968-7.387l-8-104c-0.339-4.405,2.958-8.251,7.363-8.59   c4.388-0.318,8.251,2.957,8.59,7.363l8,104c0.339,4.405-2.958,8.251-7.363,8.59C240.405,511.992,240.197,512,239.991,512z" fill="#E65C64"/>
</g>
<g>
<path d="M279.992,512.001c-1.4,0-2.819-0.368-4.108-1.141l-34.644-20.787l-19.583,19.584   c-3.125,3.123-8.189,3.123-11.314,0c-3.124-3.125-3.124-8.189,0-11.314l24-24c2.597-2.596,6.623-3.092,9.773-1.203l40,24   c3.788,2.273,5.017,7.188,2.744,10.977C285.36,510.616,282.71,512.001,279.992,512.001z" fill="#E65C64"/>
</g>
<g>
<path d="M327.99,512.001c-3.882,0-7.289-2.83-7.897-6.784l-16-104c-0.672-4.367,2.324-8.452,6.69-9.124   c4.367-0.672,8.452,2.325,9.124,6.69l16,104c0.672,4.367-2.324,8.452-6.69,9.124C328.805,511.971,328.395,512.001,327.99,512.001z" fill="#E65C64"/>
</g>
<path d="M313.562,408L313.562,408c-9.97,0-18.317-7.554-19.309-17.475L288,328h64l-19.851,66.171  C329.686,402.379,322.131,408,313.562,408z" fill="#3C3F50"/>
<path d="M233.562,416L233.562,416c-9.97,0-18.317-7.554-19.309-17.475L208,336h64l-19.851,66.171  C249.686,410.379,242.131,416,233.562,416z" fill="#3C3F50"/>
<path d="M502.288,80.36c-17.154-21.442-41.167-35.91-67.603-41.282c-14.554-13.456-32.074-23.333-51.177-28.791h0  c-18.507-5.288-38.43-1.286-53.46,10.738l0,0c-12.562,10.05-20.514,24.763-22.04,40.778l-7.694,80.789  c-4.55,47.772-34.494,89.384-78.346,108.873v0c-56.739,25.217-107.675,61.854-149.632,107.624L40,394.367l26.524-8.161  c57.587-17.719,117.5-26.728,177.752-26.728h53.806c35.137,0,68.153-16.812,88.819-45.229v0  c23.767-32.68,34.771-72.92,30.94-113.147l-9.963-104.607c-0.005-0.058-0.011-0.115-0.016-0.173c-0.812-9,5.763-17.002,14.709-18.28  l22.296-3.185c14.881-2.126,30.032-1.344,44.615,2.302L502.288,80.36L502.288,80.36z" fill="#4D5166"/>
<g>
<path d="M367.992,512.001c-1.4,0-2.819-0.368-4.108-1.141l-34.644-20.787l-19.583,19.584   c-3.125,3.123-8.189,3.123-11.314,0c-3.124-3.125-3.124-8.189,0-11.314l24-24c2.598-2.596,6.623-3.092,9.773-1.203l40,24   c3.788,2.273,5.017,7.188,2.744,10.977C373.36,510.616,370.71,512.001,367.992,512.001z" fill="#E65C64"/>
</g>
<path d="M253.726,300.025L92.952,360l16.85-42.43c14.758-37.162,39.036-68.59,69.759-90.306L320,128l-12.807,100.328  C302.942,261.63,282.243,289.387,253.726,300.025z" fill="#8B93B9"/>
<g>
<path d="M159.994,328c-1.671,0-3.354-0.521-4.794-1.6c-3.535-2.651-4.251-7.666-1.601-11.2   c21.258-28.343,14.911-56.127,14.631-57.296c-1.028-4.282,1.593-8.608,5.87-9.656c4.281-1.047,8.593,1.539,9.66,5.812   c0.365,1.458,8.625,36.093-17.36,70.74C164.828,326.896,162.426,328,159.994,328z" fill="#45495B"/>
</g>
<g>
<path d="M199.994,312c-1.671,0-3.354-0.521-4.794-1.6c-3.535-2.651-4.251-7.666-1.601-11.2   c21.258-28.343,14.911-56.127,14.631-57.296c-1.028-4.282,1.593-8.608,5.87-9.656c4.28-1.047,8.593,1.539,9.66,5.812   c0.365,1.458,8.625,36.093-17.36,70.74C204.828,310.896,202.426,312,199.994,312z" fill="#45495B"/>
</g>
<g>
<path d="M239.994,296c-1.671,0-3.354-0.521-4.794-1.6c-3.535-2.651-4.251-7.666-1.601-11.2   c21.258-28.343,14.911-56.127,14.631-57.296c-1.028-4.282,1.593-8.608,5.87-9.656c4.282-1.045,8.593,1.539,9.66,5.812   c0.365,1.458,8.625,36.093-17.36,70.74C244.828,294.896,242.426,296,239.994,296z" fill="#45495B"/>
</g>
<g>
<path d="M368,72c-8.822,0-16-7.178-16-16s7.178-16,16-16s16,7.178,16,16S376.822,72,368,72z M368,55.99V56   C368,55.993,368,55.99,368,55.99z" fill="#E65C64"/>
</g>
</svg>