<?xml version="1.0" ?><!-- Uploaded to: SVG Repo, www.svgrepo.com, Generator: SVG Repo Mixer Tools -->
<svg width="800px" height="800px" viewBox="0 0 128 128" data-name="Layer 2" id="Layer_2" xmlns="http://www.w3.org/2000/svg"><defs><style>.cls-1{fill:#c4e8f4;}.cls-2{fill:#e5ddbd;}.cls-3{fill:#995323;}.cls-4{fill:#ba6831;}.cls-5{fill:#f1edd8;}.cls-6{fill:#a4d1dd;}.cls-7{fill:#c96f32;}</style></defs><title/><path class="cls-1" d="M13.6,94.34l.78,1.28a14.69,14.69,0,0,0,12.49,7h74.35a14.65,14.65,0,0,0,13.18-8.26H13.6Z"/><path class="cls-2" d="M110.39,68.59h0A4.8,4.8,0,0,0,108.17,64c-4.62-2.81-9.44.35-9.44,4.61a5.63,5.63,0,0,0,.1.92h-20v9.82h28.6a6.09,6.09,0,0,0,6.12-4.57A5.62,5.62,0,0,0,110.39,68.59Z"/><path class="cls-3" d="M13,46.61h0a4.63,4.63,0,0,0-.29-5.39h0a7.82,7.82,0,0,1,2.34-11.79c4-2.14,10.17-4,19.34-4,17.53,0,45.09,5.51,54.25,35.81a17.8,17.8,0,0,1-16.91,23H25.54A13.34,13.34,0,0,1,12.24,70.8l.07-21.72A4.77,4.77,0,0,1,13,46.61Z"/><path class="cls-4" d="M50.35,71.57V68c0-10.21-8-15.84-18.33-16.15A18.79,18.79,0,0,0,12.53,70.5v1.15A17.61,17.61,0,0,0,30.27,89.14H75.56V78.49S68.69,73.75,50.35,71.57Z"/><path class="cls-5" d="M107.16,78.41h0a4.82,4.82,0,0,0-2.22-4.61c-4.62-2.82-9.44.35-9.44,4.61a5.75,5.75,0,0,0,.1.92h-20v9.81h28.61a6.07,6.07,0,0,0,6.12-4.56A5.64,5.64,0,0,0,107.16,78.41Z"/><circle class="cls-4" cx="70.2" cy="56.01" r="1.23"/><circle class="cls-4" cx="77.57" cy="60.99" r="1.23"/><circle class="cls-4" cx="70.2" cy="65.83" r="1.23"/><circle class="cls-4" cx="65.3" cy="60.92" r="1.23"/><circle class="cls-4" cx="75.11" cy="51.1" r="1.23"/><circle class="cls-4" cx="80.02" cy="70.74" r="1.23"/><circle class="cls-4" cx="62.84" cy="53.55" r="1.23"/><rect class="cls-6" height="5.19" rx="1.59" width="106" x="11" y="89.14"/><path class="cls-6" d="M28.52,98.79a11.89,11.89,0,0,1-2.86-.35L23,97.36A5.89,5.89,0,0,1,21.37,96,.82.82,0,0,0,20,96.9c.1.14,2.51,3.52,8.49,3.52a.82.82,0,0,0,.82-.82A.82.82,0,0,0,28.52,98.79Z"/><path class="cls-6" d="M36,98.79H30.66a.82.82,0,0,0-.82.81.82.82,0,0,0,.82.82H36a.82.82,0,0,0,.82-.82A.82.82,0,0,0,36,98.79Z"/><path class="cls-7" d="M71.43,46.58a.8.8,0,0,1-.54-.21l-.69-.62a38.55,38.55,0,0,0-10-7.11.82.82,0,0,1,.68-1.49A40.13,40.13,0,0,1,71.3,44.54l.68.62a.81.81,0,0,1-.55,1.42Z"/><path class="cls-7" d="M56.25,36.55a.78.78,0,0,1-.33-.07,53.45,53.45,0,0,0-38.19-2.33.83.83,0,0,1-1.06-.47.81.81,0,0,1,.47-1A55.3,55.3,0,0,1,56.59,35a.81.81,0,0,1,.4,1.08A.79.79,0,0,1,56.25,36.55Z"/></svg>