<?xml version="1.0" encoding="utf-8"?><!-- Uploaded to: SVG Repo, www.svgrepo.com, Generator: SVG Repo Mixer Tools -->
<svg width="800px" height="800px" viewBox="0 0 36 36" xmlns="http://www.w3.org/2000/svg" xmlns:xlink="http://www.w3.org/1999/xlink" aria-hidden="true" role="img" class="iconify iconify--twemoji" preserveAspectRatio="xMidYMid meet"><path fill="#662113" d="M36 7.5C36 12 27.941 19 18 19S0 12 0 7.5C0 6 3 9 18 9s18-3 18-1.5z"></path><path fill="#EA596E" d="M18 11c-6 0-11-1-11-1v12c0 6.075 4.925 11 11 11s11-4.925 11-11V10s-5 1-11 1z"></path><path fill="#DD2E44" d="M19 29a1 1 0 1 1-2 0V13a1 1 0 0 1 2 0v16z"></path></svg>