<?xml version="1.0" ?>
<!-- Uploaded to: SVG Repo, www.svgrepo.com, Generator: SVG Repo Mixer Tools -->
<svg width="800px" height="800px" viewBox="0 0 64 64" id="Layer_1" version="1.1" xml:space="preserve" xmlns="http://www.w3.org/2000/svg" xmlns:xlink="http://www.w3.org/1999/xlink">
<style type="text/css">
	.st0{fill:#91AAB4;}
	.st1{fill:#7D828C;}
	.st2{fill:#A4A5A6;}
</style>
<g id="Layer_30">
<rect class="st0" height="10" width="6" x="56" y="24"/>
<polyline class="st0" points="33,16 33,22 43,22 43,16  "/>
<polyline class="st0" points="30,34 24,34 24,24 30,24  "/>
<polyline class="st0" points="46,34 52,34 52,24 46,24  "/>
<path class="st0" d="M20,24h-6C8.5,24,4,28.5,4,34l0,0v10h10v-8c0-1.1,0.9-2,2-2h4V24z"/>
<rect class="st1" height="4" width="14" x="2" y="44"/>
<path class="st0" d="M12.5,56.9c0.7,0.9,0.7,2.2,0.1,3.1c-1.3,2-4,2.5-6,1.2c-0.5-0.3-0.9-0.7-1.2-1.2c-0.6-1-0.5-2.2,0.1-3.1L9,52   L12.5,56.9z"/>
<circle class="st2" cx="38" cy="29" r="9"/>
<circle class="st2" cx="38" cy="29" r="5"/>
<rect class="st1" height="2" width="4" x="29" y="28"/>
<rect class="st1" height="2" width="4" x="43" y="28"/>
<rect class="st1" height="8.6" transform="matrix(0.8137 -0.5812 0.5812 0.8137 1.2991 21.0545)" width="2" x="32.5" y="4.2"/>
<rect class="st1" height="2" transform="matrix(0.5812 -0.8137 0.8137 0.5812 10.8807 38.143)" width="8.6" x="38.2" y="7.5"/>
<path class="st1" d="M26,2h24c1.1,0,2,0.9,2,2l0,0c0,1.1-0.9,2-2,2H26c-1.1,0-2-0.9-2-2l0,0C24,2.9,24.9,2,26,2z"/>
<path class="st1" d="M38,39c-5.5,0-10-4.5-10-10s4.5-10,10-10s10,4.5,10,10C48,34.5,43.5,39,38,39z M38,21c-4.4,0-8,3.6-8,8   s3.6,8,8,8s8-3.6,8-8C46,24.6,42.4,21,38,21z"/>
<path class="st1" d="M38,35c-3.3,0-6-2.7-6-6s2.7-6,6-6s6,2.7,6,6C44,32.3,41.3,35,38,35z M38,25c-2.2,0-4,1.8-4,4s1.8,4,4,4   s4-1.8,4-4S40.2,25,38,25z"/>
<rect class="st1" height="16" width="2" x="19" y="21"/>
<rect class="st1" height="16" width="2" x="23" y="21"/>
<rect class="st1" height="2" width="16" x="30" y="15"/>
<rect class="st1" height="2" width="16" x="30" y="11"/>
<rect class="st1" height="16" width="2" x="51" y="21"/>
<rect class="st1" height="16" width="2" x="55" y="21"/>
</g>
</svg>