<?xml version="1.0" ?>
<!-- Uploaded to: SVG Repo, www.svgrepo.com, Generator: SVG Repo Mixer Tools -->
<svg width="800px" height="800px" viewBox="0 0 64 64" xmlns="http://www.w3.org/2000/svg">
<g id="a"/>
<g id="b"/>
<g id="c"/>
<g id="d"/>
<g id="e"/>
<g id="f"/>
<g id="g"/>
<g id="h"/>
<g id="i"/>
<g id="j"/>
<g id="k"/>
<g id="l"/>
<g id="m"/>
<g id="n"/>
<g id="o"/>
<g id="p"/>
<g id="q"/>
<g id="r"/>
<g id="s"/>
<g id="t"/>
<g id="u"/>
<g id="v"/>
<g id="w"/>
<g id="x"/>
<g id="y"/>
<g id="a`"/>
<g id="aa"/>
<g id="ab"/>
<g id="ac"/>
<g id="ad"/>
<g id="ae"/>
<g id="af"/>
<g id="ag"/>
<g id="ah"/>
<g id="ai"/>
<g id="aj"/>
<g id="ak"/>
<g id="al"/>
<g id="am">
<path d="M32.69,10.03c-2.9-5.79-9.13-4.61-11.2-2.71-2.06,1.89-2.19,6.51,1.2,7.2l9.99-4.49Z" fill="#fc76a8" fill-rule="evenodd"/>
<path d="M17.23,39.59c-.47,0-.94,.21-1.26,.62l-3.39,4.43,3.33,2.92s6.6-1.19,6.96-1.24-3.23-4.61-3.23-4.61l-1.15-1.51c-.32-.41-.79-.62-1.26-.62Zm28.22-.25c-.47,0-.94,.21-1.26,.62l-1.15,1.5-2.4,2.14,.94,4.71,8.5-3.91-3.39-4.43c-.32-.42-.79-.62-1.26-.62Z" fill="#6df4c0" fill-rule="evenodd"/>
<path d="M26.58,46.64c23.54,9.1,32.42,2.2,32.42,9.08,0,1.4-1.25,2.53-2.8,2.53H7.8c-1.55,0-2.8-1.13-2.8-2.53,0-2.95,1.2-16.95,21.58-9.08Z" fill="#a6e5f0" fill-rule="evenodd"/>
<path d="M26.22,50.15c-4.02-1.91-6.81-6.01-6.81-10.76s2.65-8.66,6.53-10.63h10.76c3.87,1.97,6.53,5.99,6.53,10.63,0,2.12-.56,4.12-1.53,5.84l-1.06,5.53-14.42-.61Z" fill="#f0f4f6" fill-rule="evenodd"/>
<path d="M26.9,29.42c-.52,.45-.85,1.11-.85,1.85,0,1.35,1.1,2.45,2.45,2.45,.35,0,.71-.08,1.05-.21h3.53c.34,.13,.7,.21,1.05,.21,1.35,0,2.44-1.1,2.44-2.45,0-.74-.33-1.4-.85-1.85h-8.83Z" fill="#fd91ba" fill-rule="evenodd"/>
<path d="M29.55,30.47v3.04c0,.98,.79,1.77,1.77,1.77s1.77-.79,1.77-1.77v-3.04h-3.54Z" fill="#ffd0e0" fill-rule="evenodd"/>
<path d="M19.44,16.89c0,1.28-1.04,2.32-2.32,2.32s-2.32-1.04-2.32-2.32,1.04-2.32,2.32-2.32,2.32,1.04,2.32,2.32Z" fill="#d1f1f4" fill-rule="evenodd"/>
<circle cx="44.07" cy="11.4" fill="#d1f1f4" r="3.31"/>
<path d="M33.69,13.78c2.9,.83,5.16,3.13,5.94,6.04,1.23,4.59-1.49,9.31-6.08,10.54-4.59,1.23-9.31-1.49-10.54-6.08-.78-2.92,.02-6.03,2.12-8.2l2.57-2.6,5.99,.3Z" fill="#f0f4f6" fill-rule="evenodd"/>
<path d="M35.07,11.4c.28,1.04-.33,2.1-1.37,2.38l-8.58,2.3c-1.04,.28-2.1-.33-2.38-1.37-.28-1.04,.33-2.1,1.37-2.38l8.58-2.3c1.04-.28,2.1,.33,2.38,1.37Z" fill="#ffa6c5" fill-rule="evenodd"/>
<path d="M51.91,25.07c0,1.4-1.13,2.53-2.53,2.53s-2.53-1.13-2.53-2.53,1.13-2.53,2.53-2.53,2.53,1.13,2.53,2.53Z" fill="#d1f1f4" fill-rule="evenodd"/>
<path d="M12.17,35.49c0,1.26-1.02,2.28-2.28,2.28s-2.28-1.02-2.28-2.28,1.02-2.28,2.28-2.28,2.28,1.02,2.28,2.28Z" fill="#d1f1f4" fill-rule="evenodd"/>
<path d="M37.42,46.64c-23.54,9.1-32.42,2.2-32.42,9.08,0,1.4,1.25,2.53,2.8,2.53H56.2c1.55,0,2.8-1.13,2.8-2.53,0-2.95-1.2-16.95-21.58-9.08Z" fill="#d1f1f4" fill-rule="evenodd"/>
<path d="M29.88,21.45c-.51-.21-1.1,.03-1.31,.53-.21,.51,.03,1.1,.53,1.31,.68,.29,1.43,.45,2.22,.45s1.54-.16,2.22-.45c.5-.21,.74-.8,.53-1.31-.21-.5-.8-.74-1.31-.53-.44,.19-.93,.29-1.44,.29s-1-.1-1.44-.29Z" fill="#e2eef2" fill-rule="evenodd"/>
<circle cx="50.62" cy="51.1" fill="#a6e5f0" r="1"/>
<circle cx="14.92" cy="47.92" fill="#69d9e5" r="1"/>
<circle cx="28.35" cy="55.35" fill="#a6e5f0" r="1"/>
<circle cx="31.32" cy="38.73" fill="#e2eef2" r="1"/>
<circle cx="31.32" cy="43.19" fill="#e2eef2" r="1"/>
<circle cx="33.55" cy="18.95" fill="#e2eef2" r="1"/>
<circle cx="29.09" cy="18.95" fill="#e2eef2" r="1"/>
</g>
<g id="an"/>
<g id="ao"/>
<g id="ap"/>
<g id="aq"/>
<g id="ar"/>
<g id="as"/>
<g id="at"/>
<g id="au"/>
<g id="av"/>
<g id="aw"/>
<g id="ax"/>
</svg>