<?xml version="1.0" ?>
<!DOCTYPE svg  PUBLIC '-//W3C//DTD SVG 1.1//EN'  'http://www.w3.org/Graphics/SVG/1.1/DTD/svg11.dtd'>
<!-- Uploaded to: SVG Repo, www.svgrepo.com, Generator: SVG Repo Mixer Tools -->
<svg fill="#000000" width="800px" height="800px" viewBox="0 0 64 64" style="fill-rule:evenodd;clip-rule:evenodd;stroke-linejoin:round;stroke-miterlimit:2;" version="1.1" xml:space="preserve" xmlns="http://www.w3.org/2000/svg" xmlns:serif="http://www.serif.com/" xmlns:xlink="http://www.w3.org/1999/xlink">
<g transform="matrix(1,0,0,1,0,-384)">
<g id="Icon">
<path d="M15.096,399.761C14.957,399.754 14.817,399.751 14.676,399.751C12.056,399.751 9.624,400.912 7.659,402.912C4.851,405.771 3,410.375 3,415.576C3,423.08 6.871,429.311 11.913,430.969C12.727,431.239 13.478,431.676 14.117,432.252C14.119,432.254 14.122,432.256 14.124,432.258C18.981,436.554 26.171,439.294 34.196,439.294C48.937,439.294 60.79,430.038 60.79,418.823C60.79,411.956 56.393,405.839 49.564,402.132C49.563,402.131 49.563,402.131 49.562,402.131C48.617,401.62 47.837,400.851 47.312,399.915C47.311,399.913 47.31,399.911 47.309,399.909C45.19,396.18 39.225,393.37 32.145,393.37C26.023,393.37 20.725,395.459 18.108,398.472C17.353,399.332 16.245,399.807 15.096,399.761L15.096,399.761Z" style="fill:rgb(245,240,229);"/>
<path d="M15.096,399.761C14.957,399.754 14.817,399.751 14.676,399.751C12.056,399.751 9.624,400.912 7.659,402.912C4.851,405.771 3,410.375 3,415.576C3,423.08 6.871,429.311 11.913,430.969C12.727,431.239 13.478,431.676 14.117,432.252C14.119,432.254 14.122,432.256 14.124,432.258C18.981,436.554 26.171,439.294 34.196,439.294C48.937,439.294 60.79,430.038 60.79,418.823C60.79,411.956 56.393,405.839 49.564,402.132C49.563,402.131 49.563,402.131 49.562,402.131C48.617,401.62 47.837,400.851 47.312,399.915C47.311,399.913 47.31,399.911 47.309,399.909C45.19,396.18 39.225,393.37 32.145,393.37C26.023,393.37 20.725,395.459 18.108,398.472C17.353,399.332 16.245,399.807 15.096,399.761L15.096,399.761Z" style="fill:rgb(245,240,229);"/>
<path d="M29.612,393.491C35.559,394.066 40.389,396.633 42.251,399.909C42.252,399.911 42.253,399.913 42.254,399.915C42.779,400.851 43.559,401.62 44.504,402.131C44.504,402.131 44.505,402.131 44.505,402.132C51.335,405.839 55.731,411.956 55.731,418.823C55.731,429.389 45.212,438.216 31.666,439.202C32.499,439.263 33.343,439.294 34.196,439.294C48.937,439.294 60.79,430.038 60.79,418.823C60.79,411.956 56.393,405.839 49.564,402.132C49.563,402.131 49.563,402.131 49.562,402.131C48.617,401.62 47.837,400.851 47.312,399.915C47.311,399.913 47.31,399.911 47.309,399.909C45.19,396.18 39.225,393.37 32.145,393.37C31.282,393.37 30.436,393.411 29.612,393.491Z" style="fill:rgb(234,222,199);"/>
<circle cx="19.041" cy="416.562" r="8.689" style="fill:rgb(255,252,92);"/>
<g transform="matrix(1.40204,0,0,1.40204,-551.149,236.464)">
<path d="M422.656,121.578L425.656,123.23C426.001,123.42 426.435,123.294 426.625,122.949C426.815,122.605 426.689,122.171 426.344,121.981L423.344,120.328C422.999,120.138 422.565,120.264 422.375,120.609C422.185,120.954 422.311,121.388 422.656,121.578Z" style="fill:rgb(234,222,199);"/>
</g>
<g transform="matrix(0.991391,0.991391,-0.991391,0.991391,-245.348,-124.587)">
<path d="M421,136.858L424.5,136.858C424.894,136.858 425.213,136.538 425.213,136.144C425.213,135.751 424.894,135.431 424.5,135.431L421,135.431C420.606,135.431 420.287,135.751 420.287,136.144C420.287,136.538 420.606,136.858 421,136.858Z" style="fill:rgb(234,222,199);"/>
</g>
<g transform="matrix(1.40204,0,0,1.40204,-550.162,236.464)">
<path d="M427.787,128.818L427.787,131.222C427.787,131.615 428.107,131.935 428.5,131.935C428.894,131.935 429.213,131.615 429.213,131.222L429.213,128.818C429.213,128.424 428.894,128.105 428.5,128.105C428.107,128.105 427.787,128.424 427.787,128.818Z" style="fill:rgb(234,222,199);"/>
</g>
<g transform="matrix(1.2142,-0.701019,0.701019,1.2142,-564.813,557.027)">
<path d="M419.642,129.531L421.903,129.531C422.296,129.531 422.616,129.212 422.616,128.818C422.616,128.424 422.296,128.105 421.903,128.105L419.642,128.105C419.248,128.105 418.928,128.424 418.928,128.818C418.928,129.212 419.248,129.531 419.642,129.531Z" style="fill:rgb(234,222,199);"/>
</g>
<g transform="matrix(1.16169,0.269319,0.269319,1.10026,-481.691,162.378)">
<path d="M414.346,119.859L416.542,117.399C416.969,116.92 417.078,116.319 416.784,116.056C416.49,115.794 415.905,115.97 415.477,116.449L413.282,118.909C412.855,119.388 412.746,119.99 413.04,120.252C413.333,120.514 413.919,120.338 414.346,119.859Z" style="fill:rgb(234,222,199);"/>
</g>
</g>
</g>
</svg>