<?xml version="1.0" ?>
<!-- Uploaded to: SVG Repo, www.svgrepo.com, Generator: SVG Repo Mixer Tools -->
<svg width="800px" height="800px" viewBox="0 0 32 32" xmlns="http://www.w3.org/2000/svg">
<defs>
<style>.cls-1{fill:#76ff03;}.cls-2{fill:#59bf02;}.cls-3{fill:#d500f9;}.cls-4{fill:#e040fb;}</style>
</defs>
<title/>
<g data-name="Layer 3" id="Layer_3">
<path class="cls-1" d="M16,24.46v4.69a2.51,2.51,0,0,1-1.91-.88,2.87,2.87,0,0,1-2.23.85,1.89,1.89,0,0,1-1.44-1.26c-.75-1.7.55-3.21,1.49-4a9.34,9.34,0,0,0,1,.28,13.59,13.59,0,0,0,2.73.33H16Z"/>
<path class="cls-2" d="M21.58,27.86a1.89,1.89,0,0,1-1.44,1.26,2.87,2.87,0,0,1-2.23-.85,2.51,2.51,0,0,1-1.91.88V24.46h.37a12.22,12.22,0,0,0,2.73-.33c.34-.08.67-.17,1-.28C21,24.65,22.33,26.16,21.58,27.86Z"/>
<path class="cls-3" d="M16.92,4l-.65-.48h0s.08,0,.11.08a.32.32,0,0,1,.1.13A23.1,23.1,0,0,1,19,14c0,5.06-.94,10.5-3,10.5h.37C20.08,24.16,23,19.55,23,14,23,9.31,18.75,5.46,16.92,4Z"/>
<path class="cls-3" d="M13,14a23.07,23.07,0,0,1,2.54-10.2.45.45,0,0,1,.1-.14.25.25,0,0,1,.12-.08h0L15.07,4C13.25,5.46,9,9.31,9,14c0,5.59,2.9,10.2,6.61,10.49H16C13.94,24.46,13,19,13,14Z"/>
<path class="cls-4" d="M17,24a2.3,2.3,0,0,0,.3-.37l0,0a4.53,4.53,0,0,0,.29-.49h0C18.54,21.2,19,17.49,19,14A23.1,23.1,0,0,0,16.45,3.74a.32.32,0,0,0-.1-.13.5.5,0,0,0-.71,0,.45.45,0,0,0-.1.14l-.09.17h0a3,3,0,0,0-.15.31v0A23.12,23.12,0,0,0,13,14c0,3.53.46,7.24,1.44,9.17h0a4.53,4.53,0,0,0,.29.49l0,0a1.9,1.9,0,0,0,.31.37h0a1.22,1.22,0,0,0,1.88,0Z"/>
<path class="cls-4" d="M9,14C9,9.31,13.25,5.46,15.07,4h0C13,5.64,6,11.28,6,16c0,4.11,2.58,7.16,6.89,8.16a13.59,13.59,0,0,0,2.73.33C11.92,24.15,9,19.55,9,14Z"/>
<path class="cls-4" d="M16.92,4h0C18.75,5.46,23,9.31,23,14c0,5.59-2.9,10.19-6.61,10.49a12.22,12.22,0,0,0,2.73-.33c4.32-1,6.9-4.05,6.9-8.16C26,11.28,19.05,5.64,16.92,4Z"/>
<path class="cls-4" d="M15.67,24.45Z"/>
<path class="cls-4" d="M16.33,24.45Z"/>
<path class="cls-4" d="M15.76,3.54l-.06,0s0,0,0,0Z"/>
<path class="cls-4" d="M15.67,24.45Z"/>
</g>
</svg>