<?xml version="1.0" encoding="utf-8"?>
<!-- Uploaded to: SVG Repo, www.svgrepo.com, Generator: SVG Repo Mixer Tools -->
<svg width="800px" height="800px" viewBox="0 0 64 64" xmlns="http://www.w3.org/2000/svg" xmlns:xlink="http://www.w3.org/1999/xlink" aria-hidden="true" role="img" class="iconify iconify--emojione" preserveAspectRatio="xMidYMid meet">
<g fill="#62727a">
<path d="M32.5 11.5c0 .3-.2.5-.5.5s-.5-.2-.5-.5V.5c0-.3.2-.5.5-.5s.5.2.5.5v11">
</path>
<path d="M23.5 11.5c0 .3-.2.5-.5.5s-.5-.2-.5-.5V.5c0-.3.2-.5.5-.5s.5.2.5.5v11">
</path>
<path d="M41.5 11.5c0 .3-.2.5-.5.5s-.5-.2-.5-.5V.5c0-.3.2-.5.5-.5s.5.2.5.5v11">
</path>
</g>
<path fill="#42ade2" d="M23.5 1v4l4-2z">
</path>
<path fill="#f15744" d="M32.5 1v4l4-2z">
</path>
<path fill="#ffe62e" d="M41.5 1v4l4-2z">
</path>
<ellipse cx="32" cy="18.7" rx="32" ry="8" fill="#e8e8e8">
</ellipse>
<ellipse cx="32" cy="21.2" rx="29.8" ry="8" fill="#b2c1c0">
</ellipse>
<ellipse cx="32" cy="22.3" rx="29.1" ry="8" fill="#e8e8e8">
</ellipse>
<ellipse cx="31.9" cy="25.5" rx="29.1" ry="8" fill="#62727a">
</ellipse>
<path d="M54.2 22.8c-8.5-3.7-35.7-3.9-43.8 0c-.3.1-.6.3-.8.5c12.1 2.3 32.6 2.1 44.9-.4c-.1 0-.2 0-.3-.1" fill="#83bf4f" id="IconifyId17ecdb2904d178eab26154">
</path>
<path fill="#62727a" d="M0 39.3h64V64H0z">
</path>
<g fill="#b2c1c0">
<path d="M11.2 12.7c-.3 0-.5.1-.8.2l5.9 5.9c.3 0 .6-.1.9-.1l-6-6">
</path>
<path d="M53.7 12.9c-.3 0-.5-.1-.8-.2l-6 6c.3 0 .6.1.9.1l5.9-5.9">
</path>
<path d="M32.5 17.5v-6.8h-1v6.8h1">
</path>
</g>
<use xlink:href="#IconifyId17ecdb2904d178eab26154">
</use>
<path d="M18.5 24.5l1-2h12V25h1v-2.5h12l.9 1.8c.3 0 .6-.1 1-.1L45 21.5H19l-1.5 3h1" fill="#f9f3d9">
</path>
<path d="M64 18.2c0 .6-.2 1.1-.7 1.5C54.6 26.4 7 27 .4 19.7c-.3-.3-.4-.7-.4-1.1v20.8c0 8.2 64 10.2 64-1V18.2" fill="#b2c1c0">
</path>
<path d="M37.6 32.9c-.4-1-1.5-1.9-2.6-1.9h-6c-1.1 0-2.2.9-2.5 1.9l-.9 3.2c-.3 1 .3 1.9 1.4 1.9h10c1.1 0 1.8-.9 1.5-1.9l-.9-3.2" fill="#e8e8e8">
</path>
<path d="M37 36H27c-1.1 0-2 .9-2 2v10h14V38c0-1.1-.9-2-2-2" fill="#b2c1c0">
</path>
<path fill="#62727a" d="M28 40h8v9.3h-8z">
</path>
<g fill="#ffffff">
<path d="M0 34.7v1.5c5 4.3 21.3 5.4 25 5.7v-1.2c-12.9-.8-22.7-3.2-25-6">
</path>
<path d="M64 34c-2.2 3.7-11.3 6.2-25 6.8V42c6.6-.3 20.4-1.5 25-6.3V34">
</path>
<path d="M0 29.7v1.5c5 4.3 21.3 5.4 25 5.7v-1.2c-12.9-.8-22.7-3.2-25-6">
</path>
<path d="M64 29c-2.2 3.7-11.3 6.2-25 6.8V37c6.6-.3 20.4-1.5 25-6.3V29">
</path>
<path d="M0 24.7v1.5c5 4.3 21.3 5.4 25 5.7v-1.2c-12.9-.8-22.7-3.2-25-6">
</path>
<path d="M64 24c-2.2 3.7-11.3 6.2-25 6.8V32c6.6-.3 20.4-1.5 25-6.3V24">
</path>
</g>
<g fill="#62727a">
<path d="M3.5 30.6c0 .3-.2.5-.5.3l-1-.5c-.3-.1-.5-.5-.5-.8v-1.3c0-.3.2-.5.5-.3l1 .5c.3.1.5.5.5.8v1.3">
</path>
<path d="M20 32.2l-1.1-.1c-.3 0-.5.1-.5.4l.1 1.5c0 .2.3.4.5.4l1.1.1c.3 0 .5-.1.5-.4l-.1-1.5c0-.2-.2-.4-.5-.4">
</path>
<path d="M11 30.9l-1-.2c-.3-.1-.5.1-.5.3l.1 1.6c0 .2.2.4.5.5l1 .2c.3.1.5-.1.5-.3l-.1-1.6c0-.2-.2-.4-.5-.5">
</path>
<path d="M60 30.8c0 .3.2.5.5.3l1-.5c.3-.1.5-.5.5-.8v-1.3c0-.3-.2-.5-.5-.3l-1 .5c-.3.1-.5.5-.5.8v1.3">
</path>
<path d="M43.6 32.3l1.1-.1c.3 0 .5.1.5.4l-.1 1.5c0 .2-.3.4-.5.4l-1.1.1c-.3 0-.5-.1-.5-.4l.1-1.5c-.1-.2.2-.3.5-.4">
</path>
<path d="M52.6 31.1l1-.2c.3 0 .5.1.5.3l-.1 1.6c0 .2-.2.4-.5.5l-1 .2c-.3.1-.5-.1-.5-.3l.1-1.6c-.1-.3.2-.5.5-.5">
</path>
</g>
<g fill="#b2c1c0">
<path d="M0 51.5v1h7l-3 7h1l3-7h7l-3 7h1l3-7h6.5l-2.5 7h1l3-8z">
</path>
<path d="M64 51.5v1h-7l3 7h-1l-3-7h-7l3 7h-1l-3-7h-6.5l2.5 7h-1l-3-8z">
</path>
</g>
</svg>