<?xml version="1.0" encoding="UTF-8"?>
<svg version="1.1" xmlns="http://www.w3.org/2000/svg" width="512" height="512">
<path d="M0 0 C0.92831635 -0.0066568 1.85663269 -0.0133136 2.81307983 -0.02017212 C4.76778197 -0.03023871 6.72251806 -0.03499101 8.67724609 -0.03466797 C11.62006419 -0.03902053 14.56135459 -0.0753478 17.50390625 -0.11328125 C31.68036294 -0.1992899 44.41511591 1.27527275 57.2109375 7.8984375 C57.86964844 8.23431885 58.52835937 8.5702002 59.20703125 8.91625977 C66.17946521 12.66512536 71.56046252 17.67668797 77.0234375 23.3359375 C77.76078125 24.04234375 78.498125 24.74875 79.2578125 25.4765625 C96.90546323 43.39782022 98.20376417 68.69303972 98.12109375 92.35546875 C98.11922347 93.95114599 98.11780246 95.54682381 98.11680603 97.14250183 C98.11302884 101.29669849 98.10324088 105.45085893 98.09210205 109.6050415 C98.08178343 113.8623404 98.07728626 118.11964527 98.07226562 122.37695312 C98.06161318 130.69663101 98.04459613 139.01627972 98.0234375 147.3359375 C98.97412109 147.64354004 99.92480469 147.95114258 100.90429688 148.26806641 C107.44110378 150.50601204 111.05043032 154.80474153 114.4609375 160.7109375 C118.34804762 169.15571043 118.73680569 177.9854193 115.91015625 186.8125 C111.88856761 195.54942841 106.52998065 200.71335433 97.78100586 204.515625 C92.28802144 206.14966021 86.63835378 205.74288893 80.9609375 205.5859375 C79.71376953 205.56789062 78.46660156 205.54984375 77.18164062 205.53125 C74.12809159 205.48445231 71.0761819 205.41890118 68.0234375 205.3359375 C68.03141357 205.95122314 68.03938965 206.56650879 68.04760742 207.20043945 C68.24171915 233.6475319 61.32860767 257.40500672 42.67041016 276.73876953 C37.12515611 282.11633431 30.93427463 286.88051893 24.0234375 290.3359375 C23.6934375 296.6059375 23.3634375 302.8759375 23.0234375 309.3359375 C25.31345703 309.89821045 27.60347656 310.4604834 29.96289062 311.03979492 C38.69025517 313.20893974 47.34421183 315.61007544 55.9921875 318.07421875 C56.76292099 318.29349722 57.53365448 318.51277569 58.32774353 318.73869896 C62.39959431 319.89770194 66.47044247 321.06015348 70.54052734 322.2253418 C74.68575799 323.41120365 78.83455578 324.58404827 82.98427582 325.75408649 C86.23141419 326.67237659 89.47560179 327.60078124 92.71913147 328.53172874 C94.24550225 328.96795773 95.77292355 329.40053198 97.30149841 329.82897377 C117.00665619 335.3610035 134.04955675 343.01418556 149.0234375 357.3359375 C150.03857422 358.23892578 150.03857422 358.23892578 151.07421875 359.16015625 C163.54485161 370.68112168 171.31822961 386.54703349 175.3359375 402.8359375 C175.49562012 403.47515137 175.65530273 404.11436523 175.81982422 404.77294922 C178.55337899 416.95463585 178.1853324 429.75125923 178.19140625 442.171875 C178.19463029 443.7469587 178.19799517 445.32204212 178.20149231 446.89712524 C178.20742482 450.16954239 178.20933793 453.44193334 178.20874023 456.71435547 C178.208638 460.89009084 178.22237907 465.06565852 178.23951244 469.24135399 C178.25066057 472.48256189 178.25265871 475.72372927 178.25213051 478.96495438 C178.25330295 480.50461031 178.25768291 482.04426755 178.26546288 483.58390427 C178.35264962 502.58866167 178.35264962 502.58866167 173.5859375 508.2109375 C169.36373958 511.71227236 167.29732051 512.5864029 161.86139202 512.59320641 C160.56329591 512.5996553 159.26519981 512.60610419 157.92776746 512.6127485 C156.47867462 512.60980593 155.02958216 512.60667047 153.58049011 512.60336304 C152.04774908 512.60709733 150.51500996 512.61169796 148.98227388 512.61709368 C144.75922844 512.62936658 140.53626196 512.62905819 136.31320274 512.62670493 C131.76298344 512.62629784 127.21278982 512.6373256 122.6625824 512.64682007 C113.74345593 512.66345476 104.8243559 512.66893074 95.90521523 512.67004482 C88.65704977 512.67099417 81.40889305 512.6750988 74.16073036 512.68144608 C53.62328378 512.69906558 33.08585813 512.70828389 12.54840394 512.70678513 C10.88656923 512.70666526 10.88656923 512.70666526 9.19116211 512.70654297 C7.52730462 512.70642033 7.52730462 512.70642033 5.82983384 512.70629521 C-12.14936811 512.70548221 -30.1284863 512.72462156 -48.10766403 512.7528197 C-66.55637641 512.78152655 -85.00504792 512.7953612 -103.45378321 512.79363215 C-113.81622298 512.79296746 -124.17857496 512.79849401 -134.54099464 512.81998825 C-143.36378748 512.83817119 -152.18645274 512.84257124 -161.00925616 512.8289694 C-165.51227717 512.82242499 -170.01505322 512.82237544 -174.51805115 512.8396759 C-178.63928772 512.85534701 -182.76008391 512.85260448 -186.88130935 512.83510764 C-188.37324312 512.83202451 -189.86520927 512.83571933 -191.35710488 512.84682779 C-193.38369017 512.86091959 -195.41040957 512.84798867 -197.4369936 512.83371544 C-198.56313676 512.83415017 -199.68927992 512.83458491 -200.84954864 512.83503282 C-205.59787184 512.07716413 -208.76548304 509.77866306 -211.8263092 506.13238525 C-213.40531461 502.29357329 -213.40315674 498.67671994 -213.38061523 494.59277344 C-213.38747849 493.72202179 -213.39434174 492.85127014 -213.40141296 491.95413208 C-213.41970434 489.07602585 -213.41583533 486.19846443 -213.41015625 483.3203125 C-213.41472151 481.30551986 -213.42002811 479.29072878 -213.42604065 477.27593994 C-213.4349798 473.04587499 -213.43254481 468.81599867 -213.42260742 464.5859375 C-213.41119945 459.21005479 -213.43119873 453.83483697 -213.46052456 448.4590416 C-213.47904416 444.29095423 -213.47856163 440.12302093 -213.47288704 435.95490265 C-213.4727353 433.97610806 -213.47865581 431.99730202 -213.49117851 430.01854706 C-213.57799902 414.03089724 -212.09806923 399.02734961 -204.7890625 384.5234375 C-204.3981543 383.72921387 -204.00724609 382.93499023 -203.60449219 382.11669922 C-191.47654187 358.19633529 -170.72364465 342.08000236 -145.60346222 333.52803421 C-139.52344956 331.59709936 -133.37982335 329.89188257 -127.234375 328.18359375 C-125.28879104 327.63401642 -123.34347297 327.08349698 -121.39840698 326.53208923 C-117.36142079 325.39006646 -113.32249408 324.25532034 -109.28173828 323.12670898 C-104.09608178 321.67829227 -98.91402948 320.21746191 -93.7331562 318.752038 C-88.77631489 317.35036417 -83.81798246 315.95400472 -78.859375 314.55859375 C-77.91453373 314.2923778 -76.96969246 314.02616184 -75.99621964 313.75187874 C-73.34089724 313.00492584 -70.68456632 312.26168864 -68.02783203 311.51977539 C-67.23729431 311.29700424 -66.44675659 311.07423309 -65.63226318 310.8447113 C-60.20658116 309.3359375 -60.20658116 309.3359375 -57.9765625 309.3359375 C-57.9765625 303.0659375 -57.9765625 296.7959375 -57.9765625 290.3359375 C-59.9565625 289.6759375 -61.9365625 289.0159375 -63.9765625 288.3359375 C-66.50390625 286.6015625 -66.50390625 286.6015625 -68.9140625 284.5859375 C-69.77902344 283.86277344 -70.64398438 283.13960938 -71.53515625 282.39453125 C-72.74365234 281.37552734 -72.74365234 281.37552734 -73.9765625 280.3359375 C-74.58628906 279.87316406 -75.19601563 279.41039062 -75.82421875 278.93359375 C-90.11557477 267.81809462 -99.81875695 248.35627386 -102.71289062 230.72167969 C-103.64123918 222.32184447 -103.26468264 213.76677603 -102.9765625 205.3359375 C-103.76192383 205.3673584 -104.54728516 205.3987793 -105.35644531 205.43115234 C-108.97951429 205.55731563 -112.6021194 205.63436476 -116.2265625 205.7109375 C-117.46148437 205.76121094 -118.69640625 205.81148437 -119.96875 205.86328125 C-129.623187 206.01571973 -137.54897161 204.06800642 -144.97509766 197.59350586 C-146.55851744 195.93773795 -147.76093702 194.27610797 -148.9765625 192.3359375 C-149.38648438 191.71460938 -149.79640625 191.09328125 -150.21875 190.453125 C-154.06682389 183.47351512 -154.22710774 175.07548705 -152.9765625 167.3359375 C-150.59467434 159.81994411 -146.75283885 153.5433386 -139.9765625 149.3359375 C-137.98026369 148.32856912 -135.98055442 147.3279135 -133.9765625 146.3359375 C-133.97291687 145.46056335 -133.96927124 144.58518921 -133.96551514 143.68328857 C-133.92746632 135.38689932 -133.87042402 127.09089645 -133.79265976 118.79478073 C-133.7533446 114.53081596 -133.72107866 110.26705276 -133.70556641 106.00292969 C-133.69029359 101.87887491 -133.65566342 97.75537494 -133.60825348 93.63156891 C-133.59354819 92.06736353 -133.5855278 90.5030789 -133.58467865 88.93880463 C-133.56667137 72.38219441 -129.40110356 58.03379054 -117.9140625 45.5859375 C-108.5453656 36.79279195 -95.99568404 29.96952508 -82.9453125 30.31640625 C-81.89625732 30.3537085 -80.84720215 30.39101074 -79.76635742 30.42944336 C-64.90281492 30.854116 -57.5103317 27.03483737 -46.8828125 17.05078125 C-34.16940491 5.61392483 -16.85034434 0.04315944 0 0 Z " fill="#00C6CB" transform="translate(323.9765625,-0.3359375)"/>
<path d="M0 0 C0.92831635 -0.0066568 1.85663269 -0.0133136 2.81307983 -0.02017212 C4.76778197 -0.03023871 6.72251806 -0.03499101 8.67724609 -0.03466797 C11.62006419 -0.03902053 14.56135459 -0.0753478 17.50390625 -0.11328125 C31.68036294 -0.1992899 44.41511591 1.27527275 57.2109375 7.8984375 C57.86964844 8.23431885 58.52835938 8.5702002 59.20703125 8.91625977 C66.17946521 12.66512536 71.56046252 17.67668797 77.0234375 23.3359375 C77.76078125 24.04234375 78.498125 24.74875 79.2578125 25.4765625 C96.90546323 43.39782022 98.20376417 68.69303972 98.12109375 92.35546875 C98.11922347 93.95114599 98.11780246 95.54682381 98.11680603 97.14250183 C98.11302884 101.29669849 98.10324088 105.45085893 98.09210205 109.6050415 C98.08178343 113.8623404 98.07728626 118.11964527 98.07226562 122.37695312 C98.06161318 130.69663101 98.04459613 139.01627972 98.0234375 147.3359375 C98.97412109 147.64354004 99.92480469 147.95114258 100.90429688 148.26806641 C107.44110378 150.50601204 111.05043032 154.80474153 114.4609375 160.7109375 C118.34804762 169.15571043 118.73680569 177.9854193 115.91015625 186.8125 C111.88856761 195.54942841 106.52998065 200.71335433 97.78100586 204.515625 C92.28802144 206.14966021 86.63835378 205.74288893 80.9609375 205.5859375 C79.09018555 205.55886719 79.09018555 205.55886719 77.18164062 205.53125 C74.12809159 205.48445231 71.0761819 205.41890118 68.0234375 205.3359375 C68.03141357 205.95122314 68.03938965 206.56650879 68.04760742 207.20043945 C68.24171915 233.6475319 61.32860767 257.40500672 42.67041016 276.73876953 C37.15324539 282.08909445 30.95324649 286.98603519 24.0234375 290.3359375 C23.98379883 291.58093018 23.94416016 292.82592285 23.90332031 294.10864258 C23.74995963 298.77427429 23.57273287 303.43875847 23.38867188 308.10327148 C23.312603 310.11345591 23.24281258 312.12388897 23.1796875 314.13452148 C22.68068688 329.83354881 21.66731179 342.57201499 10.140625 354.2421875 C5.81670123 358.24393655 1.44503923 361.05977981 -3.9765625 363.3359375 C-4.8840625 363.7484375 -5.7915625 364.1609375 -6.7265625 364.5859375 C-17.74047354 367.12760928 -29.38203851 365.12994153 -39.2265625 359.7109375 C-49.53213027 352.96186583 -55.39826472 343.33321452 -57.9765625 331.3359375 C-58.0594254 329.93194698 -58.09442871 328.52459102 -58.09008789 327.11816406 C-58.08997459 325.887341 -58.08997459 325.887341 -58.08985901 324.63165283 C-58.08469772 323.75547302 -58.07953644 322.87929321 -58.07421875 321.9765625 C-58.0728038 321.07218445 -58.07138885 320.1678064 -58.06993103 319.23602295 C-58.06434161 316.35262723 -58.05179103 313.46930968 -58.0390625 310.5859375 C-58.03404613 308.62890737 -58.02948346 306.67187603 -58.02539062 304.71484375 C-58.01437563 299.92184497 -57.99711824 295.12890448 -57.9765625 290.3359375 C-58.91443604 290.04170898 -59.85230957 289.74748047 -60.81860352 289.44433594 C-64.18102779 288.26417311 -66.1938923 286.86082862 -68.9140625 284.5859375 C-69.77902344 283.86277344 -70.64398438 283.13960938 -71.53515625 282.39453125 C-72.74365234 281.37552734 -72.74365234 281.37552734 -73.9765625 280.3359375 C-74.89115234 279.64177734 -74.89115234 279.64177734 -75.82421875 278.93359375 C-90.11557477 267.81809462 -99.81875695 248.35627386 -102.71289062 230.72167969 C-103.64123918 222.32184447 -103.26468264 213.76677603 -102.9765625 205.3359375 C-103.76192383 205.3673584 -104.54728516 205.3987793 -105.35644531 205.43115234 C-108.97951429 205.55731563 -112.6021194 205.63436476 -116.2265625 205.7109375 C-117.46148437 205.76121094 -118.69640625 205.81148437 -119.96875 205.86328125 C-129.623187 206.01571973 -137.54897161 204.06800642 -144.97509766 197.59350586 C-146.55851744 195.93773795 -147.76093702 194.27610797 -148.9765625 192.3359375 C-149.38648438 191.71460938 -149.79640625 191.09328125 -150.21875 190.453125 C-154.06682389 183.47351512 -154.22710774 175.07548705 -152.9765625 167.3359375 C-150.59467434 159.81994411 -146.75283885 153.5433386 -139.9765625 149.3359375 C-137.98026369 148.32856912 -135.98055442 147.3279135 -133.9765625 146.3359375 C-133.97291687 145.46056335 -133.96927124 144.58518921 -133.96551514 143.68328857 C-133.92746632 135.38689932 -133.87042402 127.09089645 -133.79265976 118.79478073 C-133.7533446 114.53081596 -133.72107866 110.26705276 -133.70556641 106.00292969 C-133.69029359 101.87887491 -133.65566342 97.75537494 -133.60825348 93.63156891 C-133.59354819 92.06736353 -133.5855278 90.5030789 -133.58467865 88.93880463 C-133.56667137 72.38219441 -129.40110356 58.03379054 -117.9140625 45.5859375 C-108.5453656 36.79279195 -95.99568404 29.96952508 -82.9453125 30.31640625 C-81.37172974 30.37235962 -81.37172974 30.37235962 -79.76635742 30.42944336 C-64.90281492 30.854116 -57.5103317 27.03483737 -46.8828125 17.05078125 C-34.16940491 5.61392483 -16.85034434 0.04315944 0 0 Z " fill="#FEDCCD" transform="translate(323.9765625,-0.3359375)"/>
<path d="M0 0 C0.0093457 0.60360352 0.01869141 1.20720703 0.02832031 1.82910156 C0.33909539 17.81269016 0.92539046 32.62361644 12.6953125 44.74609375 C16.59341102 48.25088637 20.2863239 50.3064708 25 53 C25 102.5 25 152 25 203 C-17.6406102 203.16121214 -17.6406102 203.16121214 -35.4921875 203.1953125 C-47.82428633 203.21905844 -60.15627595 203.24699245 -72.48828125 203.30175781 C-81.46913289 203.34162199 -90.44989604 203.36743198 -99.4308337 203.37635398 C-104.18637286 203.38156943 -108.94165883 203.39383007 -113.69711685 203.42292023 C-118.17374118 203.45008267 -122.65000817 203.45844332 -127.12670708 203.45243073 C-128.76901504 203.45353059 -130.41133503 203.46147966 -132.0535717 203.4768219 C-134.29836902 203.49676364 -136.54182233 203.49192509 -138.78665161 203.48101807 C-140.66987468 203.48654882 -140.66987468 203.48654882 -142.59114265 203.49219131 C-147.52911092 202.77921777 -150.67078352 200.58345895 -153.8497467 196.79644775 C-155.42875211 192.95763579 -155.42659424 189.34078244 -155.40405273 185.25683594 C-155.41091599 184.38608429 -155.41777924 183.51533264 -155.42485046 182.61819458 C-155.44314184 179.74008835 -155.43927283 176.86252693 -155.43359375 173.984375 C-155.43815901 171.96958236 -155.44346561 169.95479128 -155.44947815 167.94000244 C-155.4584173 163.70993749 -155.45598231 159.48006117 -155.44604492 155.25 C-155.43463695 149.87411729 -155.45463623 144.49889947 -155.48396206 139.1231041 C-155.50248166 134.95501673 -155.50199913 130.78708343 -155.49632454 126.61896515 C-155.4961728 124.64017056 -155.50209331 122.66136452 -155.51461601 120.68260956 C-155.60143652 104.69495974 -154.12150673 89.69141211 -146.8125 75.1875 C-146.2261377 73.99616455 -146.2261377 73.99616455 -145.62792969 72.78076172 C-133.49997937 48.86039779 -112.74708215 32.74406486 -87.62689972 24.19209671 C-81.54688706 22.26116186 -75.40326085 20.55594507 -69.2578125 18.84765625 C-67.31222854 18.29807892 -65.36691047 17.74755948 -63.42184448 17.19615173 C-59.38485829 16.05412896 -55.34593158 14.91938284 -51.30517578 13.79077148 C-46.11951928 12.34235477 -40.93746698 10.88152441 -35.7565937 9.4161005 C-30.79975239 8.01442667 -25.84141996 6.61806722 -20.8828125 5.22265625 C-19.93797123 4.9564403 -18.99312996 4.69022434 -18.01965714 4.41594124 C-15.36433474 3.66898834 -12.70800382 2.92575114 -10.05126953 2.18383789 C-9.26073181 1.96106674 -8.47019409 1.73829559 -7.65570068 1.5087738 C-2.23001866 0 -2.23001866 0 0 0 Z " fill="#44FEE8" transform="translate(266,309)"/>
<path d="M0 0 C0.92831635 -0.0066568 1.85663269 -0.0133136 2.81307983 -0.02017212 C4.76778197 -0.03023871 6.72251806 -0.03499101 8.67724609 -0.03466797 C11.62006419 -0.03902053 14.56135459 -0.0753478 17.50390625 -0.11328125 C31.68036294 -0.1992899 44.41511591 1.27527275 57.2109375 7.8984375 C57.86964844 8.23431885 58.52835938 8.5702002 59.20703125 8.91625977 C66.17946521 12.66512536 71.56046252 17.67668797 77.0234375 23.3359375 C77.76078125 24.04234375 78.498125 24.74875 79.2578125 25.4765625 C96.84456095 43.33597372 98.2047302 68.54537277 98.12109375 92.13671875 C98.11922337 93.70997573 98.11780241 95.28323331 98.11680603 96.85649109 C98.11302958 100.95150424 98.10324231 105.04648063 98.09210205 109.14147949 C98.07995998 114.07933543 98.07546244 119.01720383 98.06964874 123.9550705 C98.06002681 131.41538489 98.04083653 138.87561898 98.0234375 146.3359375 C87.7934375 146.0059375 77.5634375 145.6759375 67.0234375 145.3359375 C66.0334375 142.3659375 65.0434375 139.3959375 64.0234375 136.3359375 C59.39731592 131.70981592 55.61853401 131.21586745 49.2578125 131.125 C47.87759363 131.09686654 46.4973855 131.06820192 45.1171875 131.0390625 C42.96550575 130.99835501 40.8140104 130.96144419 38.66210938 130.93457031 C7.94979627 130.51876402 -14.78089238 119.08373795 -35.9765625 97.3359375 C-36.67136719 96.59730469 -37.36617188 95.85867187 -38.08203125 95.09765625 C-42.03832375 91.41871209 -45.46996658 90.87576718 -50.73046875 91.03125 C-54.3959307 91.52847788 -56.28786329 92.83482195 -58.9765625 95.3359375 C-60.96028624 98.48205375 -62.35704717 101.85977179 -63.79296875 105.28125 C-68.7410866 116.24255143 -77.59578737 123.97629732 -88.65625 128.41015625 C-89.52507812 128.73628906 -90.39390625 129.06242188 -91.2890625 129.3984375 C-95.52930604 131.03595698 -98.27229748 132.53306482 -100.9765625 136.3359375 C-101.6365625 139.3059375 -102.2965625 142.2759375 -102.9765625 145.3359375 C-112.8765625 145.6659375 -122.7765625 145.9959375 -132.9765625 146.3359375 C-133.06734663 137.15556713 -133.14055501 127.97550051 -133.18381119 118.79478073 C-133.20458402 114.53065916 -133.23271015 110.26686366 -133.27832031 106.00292969 C-133.32214986 101.8791107 -133.34577684 97.75560306 -133.35607147 93.63156891 C-133.36339693 92.06726437 -133.37769961 90.50297464 -133.39948273 88.93880463 C-133.62110772 72.34743376 -129.41858622 58.05273551 -117.9140625 45.5859375 C-108.5453656 36.79279195 -95.99568404 29.96952508 -82.9453125 30.31640625 C-81.37172974 30.37235962 -81.37172974 30.37235962 -79.76635742 30.42944336 C-64.90281492 30.854116 -57.5103317 27.03483737 -46.8828125 17.05078125 C-34.16940491 5.61392483 -16.85034434 0.04315944 0 0 Z " fill="#08465E" transform="translate(323.9765625,-0.3359375)"/>
<path d="M0 0 C3.63557393 1.45422957 6.970312 3.00022668 10.41821289 4.81811523 C22.90899231 11.35572666 35.24797894 15.01356116 49.47265625 15.2109375 C50.88087141 15.23898544 52.28907441 15.26764973 53.69726562 15.296875 C55.88484615 15.33816402 58.07219396 15.37511631 60.26000977 15.40136719 C62.3938479 15.42909489 64.52670249 15.47492747 66.66015625 15.5234375 C68.55713257 15.5531665 68.55713257 15.5531665 70.49243164 15.58349609 C75.44748878 16.17188111 78.7493789 17.78317947 82.3125 21.25 C84.32473604 24.52919947 84.55126737 27.21465147 85 31 C85.76554199 30.97905273 86.53108398 30.95810547 87.31982422 30.93652344 C90.83807885 30.85261638 94.35612203 30.80110404 97.875 30.75 C99.68097656 30.69972656 99.68097656 30.69972656 101.5234375 30.6484375 C111.26619856 30.54253792 120.11181731 32.11627211 127.39453125 39.0703125 C133.84746734 46.82639627 136.22310543 55.13015124 135.58203125 65.0859375 C134.45235385 72.6828285 131.31839061 79.21117284 125.6875 84.5 C116.96269975 90.70491227 109.55135995 91.54341878 98.9375 91.25 C97.69033203 91.23195313 96.44316406 91.21390625 95.15820312 91.1953125 C92.10465409 91.14851481 89.0527444 91.08296368 86 91 C86.00797607 91.61528564 86.01595215 92.23057129 86.02416992 92.86450195 C86.21828165 119.3115944 79.30517017 143.06906922 60.64697266 162.40283203 C55.12980789 167.75315695 48.92980899 172.65009769 42 176 C41.96036133 177.24499268 41.92072266 178.48998535 41.87988281 179.77270508 C41.72652213 184.43833679 41.54929537 189.10282097 41.36523438 193.76733398 C41.2891655 195.77751841 41.21937508 197.78795147 41.15625 199.79858398 C40.65724938 215.49761131 39.64387429 228.23607749 28.1171875 239.90625 C23.7988037 243.90287187 19.42432491 246.74175595 14 249 C12.515 249.61875 12.515 249.61875 11 250.25 C8 251 8 251 0 251 C0 168.17 0 85.34 0 0 Z " fill="#FECBBC" transform="translate(306,114)"/>
<path d="M0 0 C0 36.63 0 73.26 0 111 C-5.62461204 107.62523277 -5.62461204 107.62523277 -8.19140625 105.00390625 C-8.74376953 104.44509766 -9.29613281 103.88628906 -9.86523438 103.31054688 C-10.42533203 102.73369141 -10.98542969 102.15683594 -11.5625 101.5625 C-12.12646484 100.98951172 -12.69042969 100.41652344 -13.27148438 99.82617188 C-15.58589105 97.47386848 -17.88966733 95.11714086 -20.15234375 92.71484375 C-24.08577452 89.0641543 -27.53231944 88.54097988 -32.75390625 88.6953125 C-36.4193682 89.19254038 -38.31130079 90.49888445 -41 93 C-42.98372374 96.14611625 -44.38048467 99.52383429 -45.81640625 102.9453125 C-50.7645241 113.90661393 -59.61922487 121.64035982 -70.6796875 126.07421875 C-71.54851562 126.40035156 -72.41734375 126.72648437 -73.3125 127.0625 C-77.55274354 128.70001948 -80.29573498 130.19712732 -83 134 C-83.66 136.97 -84.32 139.94 -85 143 C-94.9 143.33 -104.8 143.66 -115 144 C-115.09078413 134.81962963 -115.16399251 125.63956301 -115.20724869 116.45884323 C-115.22802152 112.19472166 -115.25614765 107.93092616 -115.30175781 103.66699219 C-115.34558736 99.5431732 -115.36921434 95.41966556 -115.37950897 91.29563141 C-115.38683443 89.73132687 -115.40113711 88.16703714 -115.42292023 86.60286713 C-115.64454522 70.01149626 -111.44202372 55.71679801 -99.9375 43.25 C-90.5688031 34.45685445 -78.01912154 27.63358758 -64.96875 27.98046875 C-63.39516724 28.03642212 -63.39516724 28.03642212 -61.78979492 28.09350586 C-46.92625242 28.5181785 -39.5337692 24.69889987 -28.90625 14.71484375 C-22.10166026 8.59350175 -9.41517772 0 0 0 Z " fill="#0A789B" transform="translate(306,2)"/>
<path d="M0 0 C3.63 0.66 7.26 1.32 11 2 C14.34069301 2.30460196 14.34069301 2.30460196 17.25 2.25 C18.64992188 2.25773437 18.64992188 2.25773437 20.078125 2.265625 C23.73819563 2.02448346 23.73819563 2.02448346 30 0 C30 49.5 30 99 30 150 C20.1 150 10.2 150 0 150 C0 100.5 0 51 0 0 Z " fill="#00C6CA" transform="translate(291,362)"/>
<path d="M0 0 C33.94278607 0 33.94278607 0 42.39453125 8.0703125 C48.84746734 15.82639627 51.22310543 24.13015124 50.58203125 34.0859375 C49.45235385 41.6828285 46.31839061 48.21117284 40.6875 53.5 C26.39411553 63.19043015 20.04640468 60 0 60 C0 40.2 0 20.4 0 0 Z " fill="#FEBCA7" transform="translate(391,145)"/>
<path d="M0 0 C0 19.8 0 39.6 0 60 C-33.66037736 60 -33.66037736 60 -43.5 50.6875 C-44.8203125 48.8828125 -44.8203125 48.8828125 -46 47 C-46.40992188 46.37867188 -46.81984375 45.75734375 -47.2421875 45.1171875 C-51.09026139 38.13757762 -51.25054524 29.73954955 -50 22 C-47.5358618 14.2244685 -43.77242511 8.51495007 -37 4 C-27 0 -27 0 0 0 Z " fill="#FECABB" transform="translate(221,145)"/>
<path d="M0 0 C0.09967465 5.77997948 0.17184583 11.55944688 0.21972656 17.34008789 C0.23970918 19.30209074 0.26690484 21.26403505 0.30175781 23.22583008 C0.5517541 37.67046826 0.28266284 49.81701184 -10 61 C-14.79970891 65.85945632 -19.69457607 69.37493857 -26 72 C-26.99 72.4125 -27.98 72.825 -29 73.25 C-32 74 -32 74 -40 74 C-40 52.55 -40 31.1 -40 9 C-31.09 8.01 -31.09 8.01 -22 7 C-18.48439383 6.07959477 -15.34653712 5.20634387 -12 3.9375 C-11.23945313 3.66873047 -10.47890625 3.39996094 -9.6953125 3.12304688 C-0.94143547 0 -0.94143547 0 0 0 Z " fill="#FEBCA7" transform="translate(346,291)"/>
<path d="M0 0 C0.99870117 0.41209717 1.99740234 0.82419434 3.02636719 1.2487793 C4.36643246 1.79501431 5.70660766 2.34097973 7.046875 2.88671875 C7.70155762 3.15770386 8.35624023 3.42868896 9.03076172 3.70788574 C19.1406986 7.80608765 29.1140408 9.01036735 40 10 C40 31.45 40 52.9 40 75 C26.42005358 73.64200536 16.19131875 69.88683602 7.3828125 59.12890625 C3.16068295 52.62873504 -0.1376811 44.60867613 -0.11352539 36.78222656 C-0.11344986 35.96167786 -0.11337433 35.14112915 -0.11329651 34.29571533 C-0.10813522 33.41953552 -0.10297394 32.54335571 -0.09765625 31.640625 C-0.0962413 30.73624695 -0.09482635 29.8318689 -0.09336853 28.90008545 C-0.08777911 26.01668973 -0.07522853 23.13337218 -0.0625 20.25 C-0.05748363 18.29296987 -0.05292096 16.33593853 -0.04882812 14.37890625 C-0.03781313 9.58590747 -0.02055574 4.79296698 0 0 Z " fill="#FECBBC" transform="translate(266,290)"/>
<path d="M0 0 C0 49.5 0 99 0 150 C-4.95 150 -9.9 150 -15 150 C-15 101.49 -15 52.98 -15 3 C-9.555 2.01 -9.555 2.01 -4 1 C-1 0 -1 0 0 0 Z " fill="#0D8EBB" transform="translate(321,362)"/>
<path d="M0 0 C3.50330146 2.13415817 6.25299304 4.88351213 9.11343384 7.79901123 C9.73868454 8.4228067 10.36393524 9.04660217 11.00813293 9.68930054 C12.31785446 11.00067124 13.62268095 12.31694767 14.92276001 13.63787842 C16.90620723 15.65037552 18.90775983 17.64344533 20.91226196 19.63494873 C22.18876963 20.91769225 23.46419829 22.20151064 24.73843384 23.48651123 C25.33219315 24.0773349 25.92595245 24.66815857 26.53770447 25.27688599 C31.09915127 29.94266567 34.52052088 34.48539089 34.53140259 41.27557373 C34.36802996 46.00627668 33.33437714 48.6939966 30.09390259 52.27557373 C25.77917089 56.1793786 22.34596127 56.73408354 16.75405884 56.80682373 C9.83888767 55.42582038 4.97556215 50.61477652 0.17202759 45.78729248 C-0.76797089 44.85515678 -0.76797089 44.85515678 -1.72695923 43.90419006 C-3.04157347 42.59596332 -4.35237759 41.28389769 -5.65951538 39.96820068 C-7.6522159 37.96697186 -9.66289836 35.98514825 -11.67562866 34.00408936 C-12.95670784 32.72462209 -14.23669371 31.44405899 -15.51547241 30.16229248 C-16.11236877 29.5766301 -16.70926514 28.99096771 -17.32424927 28.38755798 C-21.92485643 23.70957629 -24.49655449 19.49341101 -25.34359741 12.83807373 C-24.78808808 8.31464058 -23.71399428 4.90145736 -20.90609741 1.27557373 C-14.10288381 -3.99285849 -7.4049782 -3.83434314 0 0 Z " fill="#09779B" transform="translate(66.90609741210938,263.72442626953125)"/>
<path d="M0 0 C8.84834207 5.21727297 10.40792712 20.38677638 12.95556641 29.68847656 C13.56042305 31.88555097 14.18233334 34.07735837 14.8046875 36.26953125 C19.39022293 52.73296619 19.39022293 52.73296619 16.92578125 59.77734375 C14.08064006 64.01821458 11.87450794 66.69516342 6.80859375 68.25390625 C1.48798042 69.02233121 -3.06710991 68.69846476 -7.58404541 65.61151123 C-12.47370862 61.48161646 -14.17480242 54.81007125 -15.76953125 48.86328125 C-15.98583191 48.07802063 -16.20213257 47.29276001 -16.42498779 46.48370361 C-16.87682009 44.8311396 -17.32362934 43.17719472 -17.765625 41.52197266 C-18.43709782 39.01996013 -19.13349205 36.52582203 -19.83203125 34.03125 C-25.20706676 14.40503867 -25.20706676 14.40503867 -22.06640625 6.37890625 C-21.44765625 5.67765625 -20.82890625 4.97640625 -20.19140625 4.25390625 C-19.38703125 3.32578125 -18.58265625 2.39765625 -17.75390625 1.44140625 C-12.80364076 -2.45692782 -5.71412302 -1.94545008 0 0 Z " fill="#09779B" transform="translate(147.19140625,230.74609375)"/>
<path d="M0 0 C2.73953324 0.77271399 5.48575563 1.51681929 8.23388672 2.25830078 C9.99086289 2.74490344 11.74739086 3.23312799 13.50341797 3.72314453 C14.31805511 3.94311096 15.13269226 4.16307739 15.97201538 4.38970947 C21.74941997 6.05074086 25.70607792 8.07509507 29.16748047 13.20751953 C30.91639557 18.08607218 31.29246298 22.51300015 29.73388672 27.51220703 C27.65748986 31.81265563 24.86759459 33.81174165 20.64794922 35.89111328 C14.20932122 37.65707428 8.15116026 35.94415503 1.91357422 34.25439453 C1.02767105 34.01972473 0.14176788 33.78505493 -0.77098083 33.54327393 C-2.63536005 33.04658258 -4.49855337 32.54542061 -6.3605957 32.04003906 C-9.19843046 31.27247789 -12.04131698 30.52632732 -14.88525391 29.78173828 C-16.70265617 29.2947426 -18.51972558 28.8065027 -20.33642578 28.31689453 C-21.18032364 28.0969281 -22.0242215 27.87696167 -22.89369202 27.65032959 C-28.8230902 26.01580529 -33.6153104 24.1586414 -37.48095703 19.13330078 C-39.6188584 14.33378395 -39.59109599 9.64074104 -38.64501953 4.52001953 C-29.99007852 -10.38955885 -13.49521354 -3.81921611 0 0 Z " fill="#09779B" transform="translate(49.64501953125,347.47998046875)"/>
</svg>
