<?xml version="1.0" ?>
<!DOCTYPE svg  PUBLIC '-//W3C//DTD SVG 1.1//EN'  'http://www.w3.org/Graphics/SVG/1.1/DTD/svg11.dtd'>
<!-- Uploaded to: SVG Repo, www.svgrepo.com, Generator: SVG Repo Mixer Tools -->
<svg width="800px" height="800px" viewBox="-0.04 0 63.992 63.992" id="Layer_1" version="1.1" xml:space="preserve" xmlns="http://www.w3.org/2000/svg" xmlns:xlink="http://www.w3.org/1999/xlink">
<g id="Cable_6_">
<g>
<rect height="9.999" style="fill:#B3B3B3;" width="4" x="38" y="53.993"/>
</g>
</g>
<g id="Cable_7_">
<g>
<rect height="9.999" style="fill:#B3B3B3;" width="4" x="18" y="53.993"/>
</g>
</g>
<g id="Plastic">
<g>
<path d="M63.902,13.999c0,0,0.089-3.765-0.626-5.25    C60.683,3.359,54.055,0,47.013,0C38.03,0,32,6.268,32,13.999c0,3.794,1.459,7.229,4,9.751v30.243c0,1.104,0.896,2,2,2h4    c1.104,0,2-0.896,2-2V27.741c0.962,0.163,1.965,0.256,3.013,0.256c6.981,0,13.621-3.433,16.264-8.749    C64.033,17.725,63.902,13.999,63.902,13.999z" style="fill-rule:evenodd;clip-rule:evenodd;fill:#CCCCCC;"/>
</g>
</g>
<g id="Muffle">
<g>
<path d="M61,9.999c-0.553,0-1,0.448-1,1v6c0,0.552,0.447,0.999,1,0.999c0.552,0,1-0.447,1-0.999v-6    C62,10.447,61.552,9.999,61,9.999z" style="fill:#999999;"/>
</g>
</g>
<g id="Shape_9_">
<g>
<path d="M44,11.999h-4c-1.104,0-2,0.895-2,2c0,1.104,0.896,1.999,2,1.999h4c1.104,0,2-0.895,2-1.999    C46,12.894,45.104,11.999,44,11.999z" style="fill:#999999;"/>
</g>
</g>
<g id="Plastic_1_">
<g>
<path d="M12,0C5.372,0,0,6.268,0,13.999    c0,7.73,5.372,13.998,12,13.998c1.214,0,2.604-0.676,4-1.672v27.668c0,1.104,0.896,2,2,2h4c1.104,0,2-0.896,2-2V17.998v-1.5    c0-0.599,0-1.401,0-2.499C24,6.268,18.627,0,12,0z" style="fill-rule:evenodd;clip-rule:evenodd;fill:#CCCCCC;"/>
</g>
</g>
<g id="Muffle_1_">
<g>
<ellipse cx="8" cy="13.999" rx="4" ry="5.999" style="fill:#999999;"/>
</g>
</g>
<g/>
<g/>
<g/>
<g/>
<g/>
<g/>
<g/>
<g/>
<g/>
<g/>
<g/>
<g/>
<g/>
<g/>
<g/>
</svg>