<?xml version="1.0" encoding="iso-8859-1"?>
<!-- Uploaded to: SVG Repo, www.svgrepo.com, Generator: SVG Repo Mixer Tools -->
<svg height="800px" width="800px" version="1.1" id="Layer_1" xmlns="http://www.w3.org/2000/svg" xmlns:xlink="http://www.w3.org/1999/xlink" 
	 viewBox="0 0 511.999 511.999" xml:space="preserve">
<g>
	<path style="fill:#D2E3F7;" d="M402.161,158.555c53.811,0,97.444,43.634,97.444,97.444s-43.634,97.444-97.444,97.444
		s-97.444-43.634-97.444-97.444S348.35,158.555,402.161,158.555z M459.752,226.695c0-6.843-5.541-12.396-12.396-12.396
		c-6.843,0-12.396,5.553-12.396,12.396c0,6.855,5.553,12.396,12.396,12.396C454.211,239.091,459.752,233.55,459.752,226.695z"/>
	<path style="fill:#D2E3F7;" d="M109.84,158.555c53.811,0,97.444,43.634,97.444,97.444s-43.634,97.444-97.444,97.444
		s-97.444-43.634-97.444-97.444S56.03,158.555,109.84,158.555z"/>
</g>
<g>
	<path style="fill:#2E1C10;" d="M447.357,239.091c6.855,0,12.396-5.541,12.396-12.396c0-6.843-5.541-12.396-12.396-12.396
		c-6.843,0-12.396,5.553-12.396,12.396C434.961,233.55,440.514,239.091,447.357,239.091z"/>
	<path style="fill:#2E1C10;" d="M109.839,365.84c60.566,0,109.84-49.274,109.84-109.84c0-20.027,16.293-36.32,36.32-36.32
		s36.32,16.293,36.32,36.32c0,60.566,49.274,109.84,109.84,109.84c60.565,0,109.839-49.274,109.839-109.84
		s-49.274-109.84-109.839-109.84c-45.794,0-85.125,28.172-101.591,68.093c-11.158-11.905-27.005-19.364-44.57-19.364
		s-33.412,7.46-44.57,19.364c-16.466-39.921-55.797-68.093-101.591-68.093C49.274,146.158,0,195.432,0,255.999
		S49.274,365.84,109.839,365.84z M402.161,170.95c46.895,0,85.047,38.152,85.047,85.048s-38.152,85.048-85.047,85.048
		c-46.896,0-85.048-38.152-85.048-85.048S355.265,170.95,402.161,170.95z M109.839,170.95c46.896,0,85.048,38.152,85.048,85.048
		s-38.152,85.048-85.048,85.048c-46.895,0.001-85.047-38.151-85.047-85.047S62.944,170.95,109.839,170.95z"/>
	<path style="fill:#2E1C10;" d="M402.161,314.26c28.462,0,52.607-20.331,57.413-48.344c1.158-6.747-3.375-13.155-10.122-14.314
		c-6.748-1.158-13.156,3.375-14.314,10.123c-2.758,16.075-16.627,27.743-32.978,27.743c-6.845,0-12.396,5.551-12.396,12.396
		S395.315,314.26,402.161,314.26z"/>
</g>
</svg>