<?xml version="1.0" encoding="iso-8859-1"?>
<!-- Uploaded to: SVG Repo, www.svgrepo.com, Generator: SVG Repo Mixer Tools -->
<svg version="1.1" id="Layer_1" xmlns="http://www.w3.org/2000/svg" xmlns:xlink="http://www.w3.org/1999/xlink" 
	 viewBox="0 0 512 512" xml:space="preserve">
<path style="fill:#88888F;" d="M226.841,214.428L14.649,426.619c-19.532,19.532-19.531,51.199,0,70.732
	c19.532,19.53,51.199,19.532,70.732,0L297.572,285.16L226.841,214.428z"/>
<rect x="371.007" y="79.879" transform="matrix(-0.7071 0.7071 -0.7071 -0.7071 777.5123 -128.9563)" style="fill:#EFC27B;" width="88.913" height="33.342"/>
<rect x="376.899" y="94.11" transform="matrix(-0.7071 0.7071 -0.7071 -0.7071 791.7395 -123.0573)" style="fill:#ECB45C;" width="88.913" height="16.671"/>
<rect x="273.044" y="0.001" style="fill:#F8E99B;" width="33.342" height="88.914"/>
<rect x="119.51" y="79.868" transform="matrix(-0.7071 -0.7071 0.7071 -0.7071 211.6449 280.7456)" style="fill:#EFC27B;" width="88.913" height="33.342"/>
<rect x="67.43" y="205.614" style="fill:#F8E99B;" width="88.913" height="33.343"/>
<rect x="273.044" y="355.657" style="fill:#EFC27B;" width="33.343" height="88.914"/>
<rect x="370.994" y="331.353" transform="matrix(-0.7071 -0.7071 0.7071 -0.7071 463.1283 887.8814)" style="fill:#ECB45C;" width="88.913" height="33.342"/>
<rect x="423.086" y="205.614" style="fill:#EFC27B;" width="88.914" height="33.343"/>
<path style="fill:#797781;" d="M14.649,497.351c19.532,19.53,51.199,19.532,70.732,0L297.572,285.16l-35.364-35.366L14.649,497.351z
	"/>
<rect x="244.981" y="160.875" transform="matrix(0.7071 -0.7071 0.7071 0.7071 -60.9282 274.683)" style="fill:#F8F8F9;" width="112.253" height="100.027"/>
<rect x="262.664" y="203.564" transform="matrix(0.7071 -0.7071 0.7071 0.7071 -68.2526 292.3658)" style="fill:#EDEDED;" width="112.253" height="50.014"/>
</svg>