<?xml version="1.0" encoding="iso-8859-1"?>
<!-- Uploaded to: SVG Repo, www.svgrepo.com, Generator: SVG Repo Mixer Tools -->
<svg height="800px" width="800px" version="1.1" id="Layer_1" xmlns="http://www.w3.org/2000/svg" xmlns:xlink="http://www.w3.org/1999/xlink" 
	 viewBox="0 0 473.68 473.68" xml:space="preserve">
<path style="fill:#357180;" d="M0,236.844C0,106.025,106.036,0,236.836,0C367.644,0,473.68,106.025,473.68,236.844
	c0,130.793-106.036,236.836-236.844,236.836C106.04,473.68,0,367.636,0,236.844z"/>
<path style="fill:#FFFFFF;" d="M323.24,134.439c-20.022-5.505-45.159-1.784-65.522-1.784c-17.075,0-34.158,0-51.233,0
	c0-9.33,0-18.661,0-27.991c0-2.584-1.159-4.413-2.79-5.531c-1.963-1.791-4.82-2.457-7.771-0.565
	c-27.015,17.307-54.026,34.621-81.033,51.936c-4.551,2.913-4.476,9.222,0.045,12.12c27.007,17.311,54.019,34.625,81.026,51.939
	c4.48,2.872,10.519-0.92,10.519-6.021c0-11.271,0-22.535,0-33.806c32.972,0,65.952,0,98.92,0c21.327,0,26.491,15.863,26.491,33.727
	c0,21.738,0,43.473,0,65.211c0,18.53-13.459,26.02-29.921,26.02c-19.409,0-38.821,0-58.229,0c-37.512,0-75.028,0-112.536,0
	c-27.172,0-27.408,42.078-0.307,42.078c43.335,0,86.669,0,130.004,0c15.635,0,31.263,0,46.898,0
	c36.502,0,66.169-30.414,66.169-66.685C373.971,224.339,386.869,151.929,323.24,134.439z"/>
</svg>