<?xml version="1.0" ?><!-- Uploaded to: SVG Repo, www.svgrepo.com, Generator: SVG Repo Mixer Tools -->
<svg width="800px" height="800px" viewBox="0 0 512 512" data-name="Camada 1" id="Camada_1" xmlns="http://www.w3.org/2000/svg"><defs><style>.cls-1{fill:#ffffff;stroke:#e6e6e6;stroke-miterlimit:10;stroke-width:15px;}.cls-2{fill:#cb0000;}.cls-3{fill:#ff011d;}</style></defs><title/><path class="cls-1" d="M357.73,281.58H154.27a21.42,21.42,0,0,1-21.43-21.43V50.93a21.61,21.61,0,0,1,.67-5.36,22.11,22.11,0,0,1,5.6-9.79,22.53,22.53,0,0,1,15.16-6.28H357.73a21.42,21.42,0,0,1,21.43,21.43V260.15A21.42,21.42,0,0,1,357.73,281.58Z"/><path class="cls-2" d="M409.38,279.22a116.63,116.63,0,0,0,0,133.24v60a10.05,10.05,0,0,1-10,10H112.65a10.05,10.05,0,0,1-10-10V410a116.62,116.62,0,0,0,0-128.3V219.21a10.05,10.05,0,0,1,10-10h286.7a10.05,10.05,0,0,1,10,10Z"/><path class="cls-3" d="M396.37,284.87a106.77,106.77,0,0,0,0,121.94v54.92a9.21,9.21,0,0,1-9.18,9.18H124.81a9.21,9.21,0,0,1-9.18-9.18V404.55a106.77,106.77,0,0,0,0-117.42V229.94a9.21,9.21,0,0,1,9.18-9.18H387.19a9.21,9.21,0,0,1,9.18,9.18Z"/></svg>