<?xml version="1.0" encoding="iso-8859-1"?>
<!-- Uploaded to: SVG Repo, www.svgrepo.com, Generator: SVG Repo Mixer Tools -->
<svg height="800px" width="800px" version="1.1" id="Layer_1" xmlns="http://www.w3.org/2000/svg" xmlns:xlink="http://www.w3.org/1999/xlink" 
	 viewBox="0 0 512 512" xml:space="preserve">
<path style="fill:#B88C1D;" d="M372.951,483.051c-34.865-15.689-59.14-50.733-59.14-91.446H198.19
	c0,40.713-24.275,75.757-59.14,91.446H372.951z"/>
<path style="fill:#F9BE00;" d="M136.067,318.352c0,66.237,53.696,81.924,119.933,81.924s119.933-15.689,119.933-81.924V149.027
	H136.067V318.352z"/>
<g>
	<circle style="fill:#FFFFFF;" cx="321.925" cy="231.656" r="32.301"/>
	<circle style="fill:#FFFFFF;" cx="334.532" cy="303.463" r="19.694"/>
</g>
<path style="fill:#F9BE00;" d="M375.933,149.027c0-66.238-53.696-92.293-119.933-92.293s-119.933,26.055-119.933,92.293H375.933z"/>
<path style="fill:#B88C1D;" d="M375.933,171.919c12.643,0,22.893-10.249,22.893-22.893c0-12.643-10.249-22.893-22.893-22.893
	H136.067c-12.643,0-22.893,10.249-22.893,22.893c0,12.643,10.249,22.893,22.893,22.893H375.933z"/>
<path style="fill:#F9BE00;" d="M375.933,512c12.643,0,22.893-10.249,22.893-22.893c0-12.642-10.249-22.893-22.893-22.893H136.067
	c-12.643,0-22.893,10.25-22.893,22.893c0,12.643,10.249,22.893,22.893,22.893H375.933z"/>
<g>
	<path style="fill:#B88C1D;" d="M413.132,301.274h-37.199v-34.882h37.199c11.72,0,21.256-9.537,21.256-21.257
		s-9.535-21.257-21.256-21.257h-37.199v-34.882h37.199c30.955,0,56.139,25.184,56.139,56.139S444.087,301.274,413.132,301.274z"/>
	<path style="fill:#B88C1D;" d="M98.868,301.274h37.199v-34.882H98.868c-11.72,0-21.256-9.537-21.256-21.257
		s9.535-21.257,21.256-21.257h37.199v-34.882H98.868c-30.955,0-56.139,25.184-56.139,56.139
		C42.73,276.09,67.913,301.274,98.868,301.274z"/>
	<circle style="fill:#B88C1D;" cx="256.005" cy="28.368" r="28.368"/>
</g>
</svg>